<?xml version="1.0" encoding="UTF-8" standalone="no"?>
<!-- Created with Inkscape (http://www.inkscape.org/) -->

<svg
   xmlns:dc="http://purl.org/dc/elements/1.1/"
   xmlns:cc="http://creativecommons.org/ns#"
   xmlns:rdf="http://www.w3.org/1999/02/22-rdf-syntax-ns#"
   xmlns:svg="http://www.w3.org/2000/svg"
   xmlns="http://www.w3.org/2000/svg"
   xmlns:sodipodi="http://sodipodi.sourceforge.net/DTD/sodipodi-0.dtd"
   xmlns:inkscape="http://www.inkscape.org/namespaces/inkscape"
   width="210mm"
   height="297mm"
   viewBox="0 0 210 297"
   version="1.1"
   id="svg1052"
   inkscape:version="0.92.5 (2060ec1f9f, 2020-04-08)"
   sodipodi:docname="cusp.svg">
  <defs
     id="defs1046" />
  <sodipodi:namedview
     id="base"
     pagecolor="#ffffff"
     bordercolor="#666666"
     borderopacity="1.0"
     inkscape:pageopacity="0.0"
     inkscape:pageshadow="2"
     inkscape:zoom="2.8"
     inkscape:cx="360"
     inkscape:cy="560"
     inkscape:document-units="mm"
     inkscape:current-layer="layer1"
     showgrid="false"
     inkscape:window-width="1920"
     inkscape:window-height="1015"
     inkscape:window-x="0"
     inkscape:window-y="0"
     inkscape:window-maximized="1" />
  <metadata
     id="metadata1049">
    <rdf:RDF>
      <cc:Work
         rdf:about="">
        <dc:format>image/svg+xml</dc:format>
        <dc:type
           rdf:resource="http://purl.org/dc/dcmitype/StillImage" />
        <dc:title></dc:title>
      </cc:Work>
    </rdf:RDF>
  </metadata>
  <g
     inkscape:label="Layer 1"
     inkscape:groupmode="layer"
     id="layer1">
    <path
       style="fill:none;stroke:#000000;stroke-width:0.26458332px;stroke-linecap:butt;stroke-linejoin:miter;stroke-opacity:1"
       d="m 72.760416,138.1555 c 0.227211,-0.18177 0.492696,-0.41653 0.755951,-0.56696 0.122304,-0.0699 0.260771,-0.11085 0.377976,-0.18899 0.167815,-0.11187 0.309362,-0.25935 0.472472,-0.37797 0.183692,-0.1336 0.375338,-0.25604 0.566965,-0.37798 0.154948,-0.0986 0.323935,-0.17546 0.472469,-0.28348 0.198956,-0.1447 0.370157,-0.32487 0.566965,-0.47247 0.181708,-0.13629 0.38327,-0.24438 0.566962,-0.37798 0.163113,-0.11863 0.314982,-0.25198 0.472472,-0.37798 0.157491,-0.12599 0.321728,-0.24398 0.472469,-0.37797 0.133173,-0.11838 0.251984,-0.25199 0.377976,-0.37798 0.220488,-0.22048 0.440973,-0.44097 0.661458,-0.66146 0.157491,-0.15749 0.314982,-0.31498 0.472472,-0.47247 0.063,-0.063 0.135533,-0.11771 0.188987,-0.18898 0.04226,-0.0564 0.05224,-0.13265 0.0945,-0.18899 0.146883,-0.19585 0.41149,-0.37262 0.566962,-0.56697 0.278633,-0.34829 0.106834,-0.17805 0.283483,-0.47247 0.05843,-0.0974 0.118043,-0.1948 0.188989,-0.28348 0.05565,-0.0696 0.143153,-0.11259 0.188986,-0.18899 0.05125,-0.0854 0.063,-0.18899 0.0945,-0.28348 0.0315,-0.0945 0.063,-0.18899 0.09449,-0.28348 0.063,-0.18899 0.115003,-0.382 0.188989,-0.56697 0.02617,-0.0654 0.07741,-0.12065 0.09449,-0.18898 0.01527,-0.0611 -0.01992,-0.12923 0,-0.18899 0.01408,-0.0423 0.08041,-0.0522 0.09449,-0.0945 0.01992,-0.0598 -0.01527,-0.12787 0,-0.18898 0.01709,-0.0683 0.07222,-0.12218 0.09449,-0.18899 0.02167,-0.065 -0.02788,-0.22773 0,-0.28348 0.01992,-0.0399 0.07458,-0.0547 0.0945,-0.0945 0.02926,-0.0585 -0.02796,-0.35002 0,-0.37798 0.02228,-0.0223 0.07222,-0.0223 0.09449,0 0.02228,0.0223 -0.0099,0.0646 0,0.0945 0.04454,0.13363 0.136673,0.24719 0.188989,0.37798 0.03699,0.0925 0.0575,0.191 0.09449,0.28348 0.141436,0.35359 0.06163,0.0288 0.283483,0.47247 0.04454,0.0891 0.0575,0.191 0.09449,0.28348 0.02617,0.0654 0.06834,0.12359 0.09449,0.18899 0.03699,0.0925 0.04995,0.19439 0.0945,0.28348 0.05079,0.10158 0.138197,0.1819 0.188986,0.28348 0.04454,0.0891 0.0575,0.191 0.09449,0.28348 0.05232,0.13079 0.116515,0.25719 0.18899,0.37798 0.05843,0.0974 0.138199,0.1819 0.188989,0.28348 0.04454,0.0891 0.0575,0.191 0.09449,0.28349 0.02617,0.0654 0.06834,0.12359 0.09449,0.18898 0.233535,0.58384 -0.03262,0.0293 0.18899,0.47247 0.342566,0.68514 -0.0996,-0.1494 0.188986,0.28349 0.03907,0.0586 0.063,0.12599 0.0945,0.18898 0.063,0.12599 0.125992,0.25199 0.188987,0.37798 0.0315,0.063 0.07741,0.12066 0.09449,0.18899 0.01527,0.0611 0,0.12599 0,0.18899 0,0.0315 -0.01408,0.0663 0,0.0945 0.01992,0.0398 0.07458,0.0546 0.0945,0.0945 0.01408,0.0282 -0.01408,0.0663 0,0.0945 0.01992,0.0398 0.07457,0.0547 0.09449,0.0945 0.01408,0.0282 -0.01408,0.0663 0,0.0945 0.01992,0.0398 0.07457,0.0547 0.09449,0.0945 0.02817,0.0564 -0.02817,0.13264 0,0.18899 0.0567,0.11339 0.226787,0.17009 0.283482,0.28348 0.01408,0.0282 -0.01408,0.0663 0,0.0945 0.01992,0.0399 0.063,0.063 0.09449,0.0945 0.0945,0.0945 0.18899,0.18899 0.283483,0.28348 0.063,0.063 0.13957,0.11486 0.188989,0.18899 0.03907,0.0586 0.05223,0.13264 0.09449,0.18899 0.50977,0.67969 -0.104923,-0.19942 0.377976,0.28348 0.0498,0.0498 0.04469,0.13919 0.0945,0.18899 0.0498,0.0498 0.139184,0.0447 0.188987,0.0945 0.0498,0.0498 0.04469,0.13919 0.09449,0.18899 0.0498,0.0498 0.132644,0.0522 0.188989,0.0945 0.07127,0.0535 0.117716,0.13554 0.188989,0.18899 0.05635,0.0423 0.130384,0.0554 0.188987,0.0945 0.03706,0.0247 0.05743,0.0698 0.09449,0.0945 0.04759,0.20818 0.194395,0.0499 0.283483,0.0945 0.07968,0.0399 0.114861,0.13957 0.188989,0.18899 0.145177,0.0968 0.232799,0.0922 0.377976,0.18899 0.116647,0.0778 0.07234,0.11122 0.188989,0.18899 0.117205,0.0781 0.260771,0.11085 0.377976,0.18899 0.07413,0.0494 0.109302,0.14914 0.188987,0.18898 0.02817,0.0141 0.06632,-0.0141 0.0945,0 0.03984,0.0199 0.05743,0.0698 0.09449,0.0945 0.0586,0.0391 0.130384,0.0554 0.188986,0.0945 0.03707,0.0247 0.05465,0.0746 0.0945,0.0945 0.02817,0.0141 0.063,0 0.09449,0 0.0315,0.0315 0.05465,0.0746 0.09449,0.0945 0.02817,0.0141 0.06632,-0.0141 0.0945,0 0.07968,0.0398 0.109302,0.14915 0.188986,0.18899 0.05635,0.0282 0.132644,-0.0282 0.18899,0 0.03984,0.0199 0.05465,0.0746 0.09449,0.0945 0.02817,0.0141 0.06632,-0.0141 0.09449,0 0.03984,0.0199 0.05224,0.0804 0.0945,0.0945 0.05976,0.0199 0.125992,0 0.188987,0 0.220488,0 0.440973,0 0.661458,0 0.04256,0 0.254725,-0.0144 0.283483,0 0.03984,0.0199 0.05465,0.0746 0.09449,0.0945 0.05634,0.0282 0.132643,-0.0282 0.188989,0 0.03984,0.0199 0.05465,0.0746 0.09449,0.0945 0.05635,0.0282 0.132644,-0.0282 0.18899,0 0.03984,0.0199 0.05465,0.0746 0.09449,0.0945 0.05635,0.0282 0.132643,-0.0282 0.188989,0 0.03984,0.0199 0.05743,0.0698 0.09449,0.0945 0.0586,0.0391 0.130384,0.0554 0.188987,0.0945 0.139046,0.0927 0.238932,0.28528 0.377978,0.37797 0.117206,0.0781 0.265285,0.10447 0.377976,0.18899 0.679694,0.50977 -0.199419,-0.10492 0.283483,0.37798 0.0498,0.0498 0.139184,0.0447 0.188986,0.0945 0.0061,0.006 0.177255,0.36038 0.18899,0.37798 0.02471,0.0371 0.06978,0.0574 0.09449,0.0945 0.1163,0.17445 0.167182,0.39251 0.283482,0.56697 0.02471,0.0371 0.07457,0.0547 0.09449,0.0945 0.01407,0.0282 -0.01408,0.0663 0,0.0945 0.19663,0.39327 -0.0065,-0.10101 0.188989,0.0945 0.02228,0.0223 -0.01408,0.0663 0,0.0945 0.01992,0.0398 0.07457,0.0547 0.09449,0.0945 0.01408,0.0282 -0.01408,0.0663 0,0.0945 0.01992,0.0398 0.07457,0.0546 0.09449,0.0945 0.02817,0.0564 -0.02817,0.13265 0,0.18899 0.03984,0.0797 0.160817,0.10447 0.18899,0.18899 0.01992,0.0598 -0.01527,0.12787 0,0.18899 0.01709,0.0683 0.07741,0.12066 0.09449,0.18899 0.01527,0.0611 -0.01236,0.12721 0,0.18898 0.03907,0.19535 0.156239,0.37047 0.188989,0.56697 0.01553,0.0932 -0.01553,0.19027 0,0.28348 0.03275,0.1965 0.156237,0.37046 0.188987,0.56696 0.01553,0.0932 -0.01553,0.19028 0,0.28349 0.01638,0.0982 0.063,0.18899 0.0945,0.28348 0.0315,0.0945 0.0575,0.191 0.09449,0.28348 0.02617,0.0654 0.07741,0.12066 0.09449,0.18899 0.04102,0.16406 -0.04102,0.4029 0,0.56696 0.01709,0.0683 0.07741,0.12066 0.09449,0.18899 0.01844,0.0737 0,0.45668 0,0.56697 0,0.0315 -0.0076,0.0639 0,0.0945 0.02416,0.0966 0.07034,0.18685 0.0945,0.28348 0.02013,0.0805 0,0.20017 0,0.28348 0,0.25199 0,0.50397 0,0.75596 0,0.0945 -0.01553,0.19027 0,0.28348 0.01638,0.0983 0.07812,0.18523 0.09449,0.28348 0.01553,0.0932 0,0.18899 0,0.28348 0,0.34648 0,0.69296 0,1.03944 0,0.22048 0,0.44097 0,0.66146 0,0.0945 0.01852,0.19082 0,0.28348 -0.01381,0.0691 -0.07741,0.12066 -0.09449,0.18899 -0.03056,0.12223 0.03056,0.25574 0,0.37797 -0.01709,0.0683 -0.07222,0.12217 -0.0945,0.18899 -0.01992,0.0598 0.01992,0.12922 0,0.18899 -0.02228,0.0668 -0.07222,0.12217 -0.09449,0.18899 -0.01992,0.0598 0.01992,0.12922 0,0.18898 -0.02228,0.0668 -0.07222,0.12218 -0.09449,0.18899 -0.01992,0.0598 0.02817,0.13265 0,0.18899 -0.01992,0.0398 -0.07457,0.0547 -0.09449,0.0945 -0.01408,0.0282 0.0099,0.0646 0,0.0945 -0.02228,0.0668 -0.07222,0.12217 -0.0945,0.18899 -0.0099,0.0299 0.01408,0.0663 0,0.0945 -0.01992,0.0398 -0.08041,0.0522 -0.09449,0.0945 -0.01992,0.0598 0.02817,0.13264 0,0.18898 -0.03984,0.0797 -0.149145,0.10931 -0.188989,0.18899 -0.02817,0.0564 0.01992,0.12923 0,0.18899 -0.01408,0.0423 -0.06777,0.0589 -0.09449,0.0945 -0.06814,0.0909 -0.1382,0.18191 -0.188987,0.28349 -0.08909,0.17817 -0.0999,0.38878 -0.188989,0.56696 -0.101579,0.20316 -0.261114,0.3722 -0.377976,0.56696 -0.07247,0.12079 -0.136673,0.24719 -0.188989,0.37798 -0.07683,0.19209 -0.07818,0.30627 -0.188986,0.47247 -0.02471,0.0371 -0.063,0.063 -0.0945,0.0945 -0.063,0.0945 -0.130556,0.1861 -0.188987,0.28349 -0.03624,0.0604 -0.05542,0.13038 -0.09449,0.18899 -0.07767,0.1165 -0.111321,0.0725 -0.188989,0.18898 -0.03907,0.0586 -0.05542,0.13039 -0.09449,0.18899 -0.04942,0.0741 -0.13957,0.11486 -0.188989,0.18899 -0.03907,0.0586 -0.04469,0.13919 -0.09449,0.18899 -0.0996,0.0996 -0.278371,0.0894 -0.377976,0.18899 -0.0498,0.0498 -0.04469,0.13918 -0.0945,0.18898 -0.0498,0.0498 -0.125992,0.063 -0.188987,0.0945 -0.063,0.0315 -0.139186,0.0447 -0.188989,0.0945 -0.0498,0.0498 -0.04469,0.13919 -0.09449,0.18899 -0.0996,0.0996 -0.265285,0.10447 -0.377976,0.18899 -0.07127,0.0535 -0.117716,0.13553 -0.188989,0.18898 -0.112689,0.0845 -0.257186,0.11652 -0.377976,0.18899 -0.09738,0.0584 -0.186097,0.13056 -0.283483,0.18899 -0.06039,0.0362 -0.130384,0.0554 -0.188986,0.0945 -0.03707,0.0247 -0.05743,0.0698 -0.0945,0.0945 -0.0586,0.0391 -0.125992,0.063 -0.188987,0.0945 -0.063,0.0315 -0.122171,0.0722 -0.188989,0.0945 -0.02988,0.01 -0.06299,0 -0.09449,0 -0.09449,0.0315 -0.191932,0.0553 -0.283483,0.0945 -0.129473,0.0555 -0.247187,0.13668 -0.377975,0.18899 -0.02925,0.0117 -0.06525,-0.0117 -0.09449,0 -0.250692,0.10028 -0.637331,0.33927 -0.850447,0.47247 -0.09631,0.0602 -0.178036,0.14681 -0.283483,0.18899 -0.0011,5.3e-4 -1.316783,0.37609 -1.322916,0.37798 -0.1904,0.0586 -0.380437,0.11903 -0.566963,0.18898 -0.06595,0.0247 -0.120234,0.0792 -0.188989,0.0945 -0.217421,0.0483 -0.441764,0.0579 -0.661458,0.0945 -0.158425,0.0264 -0.314048,0.0681 -0.472469,0.0945 -0.03107,0.005 -0.063,0 -0.0945,0 -0.125992,0 -0.251984,0 -0.377976,0 -0.125992,0 -0.253249,0.0178 -0.377976,0 -0.09861,-0.0141 -0.185812,-0.075 -0.283483,-0.0945 -0.06177,-0.0123 -0.127873,0.0153 -0.188986,0 -0.06833,-0.0171 -0.130387,-0.0554 -0.188989,-0.0945 -0.03706,-0.0247 -0.04995,-0.0945 -0.09449,-0.0945 -0.0996,0 -0.183877,0.0945 -0.283482,0.0945 -0.04454,0 -0.05465,-0.0746 -0.09449,-0.0945 -0.02817,-0.0141 -0.06461,0.01 -0.0945,0 -0.06682,-0.0223 -0.122169,-0.0722 -0.188987,-0.0945 -0.02988,-0.01 -0.063,0 -0.0945,0 -0.09449,0 -0.191807,0.0229 -0.28348,0 -0.04322,-0.0108 -0.05465,-0.0746 -0.0945,-0.0945 -0.02817,-0.0141 -0.06461,0.01 -0.09449,0 -0.06682,-0.0223 -0.120658,-0.0774 -0.188989,-0.0945 -0.06111,-0.0153 -0.129223,0.0199 -0.188987,0 -0.04226,-0.0141 -0.04995,-0.0945 -0.09449,-0.0945 -0.07043,0 -0.120661,0.0774 -0.188989,0.0945 -0.06112,0.0153 -0.125992,0 -0.18899,0 -0.125992,0 -0.251983,0 -0.377975,0 -0.125992,0 -0.253249,-0.0178 -0.377976,0 -0.09861,0.0141 -0.184878,0.0804 -0.283483,0.0945 -0.145505,0.0208 -0.784674,0 -0.944941,0 -0.03695,0 -0.620701,0.0136 -0.661458,0 -0.04226,-0.0141 -0.05465,-0.0746 -0.09449,-0.0945 -0.02817,-0.0141 -0.06632,0.0141 -0.09449,0 -0.03984,-0.0199 -0.05743,-0.0698 -0.09449,-0.0945 -0.0586,-0.0391 -0.125992,-0.063 -0.188989,-0.0945 -0.063,-0.0315 -0.123595,-0.0683 -0.188989,-0.0945 -0.09248,-0.037 -0.200605,-0.0392 -0.28348,-0.0945 -0.111191,-0.0741 -0.188989,-0.18898 -0.283483,-0.28348 -0.188989,-0.18898 -0.395864,-0.36164 -0.566965,-0.56696 -0.0727,-0.0872 -0.108683,-0.20318 -0.188989,-0.28348 -0.0803,-0.0803 -0.194799,-0.11805 -0.28348,-0.18899 -0.06957,-0.0557 -0.125992,-0.12599 -0.188989,-0.18899 -0.125992,-0.12599 -0.251984,-0.25198 -0.377976,-0.37797 -0.06052,-0.0605 -0.319024,-0.28955 -0.377976,-0.37798 -0.03907,-0.0586 -0.04469,-0.13919 -0.0945,-0.18899 -0.0498,-0.0498 -0.130384,-0.0554 -0.188986,-0.0945 -0.03706,-0.0247 -0.063,-0.063 -0.09449,-0.0945 -0.107818,-0.10781 -0.354844,-0.38425 -0.472472,-0.47247 -0.05635,-0.0423 -0.139184,-0.0447 -0.188987,-0.0945 -0.0498,-0.0498 -0.063,-0.12599 -0.0945,-0.18899 -0.06299,-0.063 -0.119419,-0.13333 -0.188986,-0.18899 -0.148564,-0.11885 -0.367168,-0.20247 -0.472472,-0.37798 -0.05124,-0.0854 -0.04325,-0.19807 -0.09449,-0.28348 -0.04584,-0.0764 -0.135533,-0.11771 -0.188989,-0.18898 -0.04226,-0.0564 -0.05542,-0.13039 -0.09449,-0.18899 -0.02471,-0.0371 -0.06978,-0.0574 -0.09449,-0.0945 -0.03907,-0.0586 -0.05542,-0.13038 -0.09449,-0.18899 -0.02471,-0.0371 -0.07457,-0.0547 -0.0945,-0.0945 -0.01408,-0.0282 0.01408,-0.0663 0,-0.0945 -0.01992,-0.0399 -0.07457,-0.0547 -0.09449,-0.0945 -0.01408,-0.0282 0,-0.063 0,-0.0945 0,-0.063 0.01992,-0.12923 0,-0.18899 -0.01408,-0.0423 -0.08041,-0.0522 -0.09449,-0.0945 -0.01992,-0.0598 0.01992,-0.12923 0,-0.18899 -0.01408,-0.0423 -0.08041,-0.0522 -0.0945,-0.0945 -0.01992,-0.0598 0.02817,-0.13265 0,-0.18899 -0.03984,-0.0797 -0.139568,-0.11486 -0.188986,-0.18899 -0.03494,-0.0524 0.01992,-0.12923 0,-0.18899 -0.228153,-0.68446 0.02724,0.14898 -0.18899,-0.28348 -0.01408,-0.0282 0.0099,-0.0646 0,-0.0945 -0.267687,-0.53537 0.03522,0.14087 -0.09449,-0.37797 -0.03416,-0.13666 -0.154823,-0.24132 -0.188989,-0.37798 -0.01527,-0.0611 0.01992,-0.12922 0,-0.18899 -0.01408,-0.0423 -0.06776,-0.0589 -0.09449,-0.0945 -0.06814,-0.0909 -0.1382,-0.18191 -0.188987,-0.28348 -0.01408,-0.0282 0.0099,-0.0646 0,-0.0945 -0.02228,-0.0668 -0.07222,-0.12217 -0.0945,-0.18898 -0.0099,-0.0299 0.01408,-0.0663 0,-0.0945 -0.01992,-0.0398 -0.07457,-0.0546 -0.09449,-0.0945 -0.0297,-0.0594 0.0297,-0.31859 0,-0.37798 -0.01992,-0.0398 -0.07457,-0.0547 -0.09449,-0.0945 -0.01407,-0.0282 0.0099,-0.0646 0,-0.0945 -0.02228,-0.0668 -0.07222,-0.12217 -0.09449,-0.18899 -0.01992,-0.0598 0.02817,-0.13264 0,-0.18898 -0.01992,-0.0399 -0.08041,-0.0522 -0.09449,-0.0945 -0.01992,-0.0598 0.01527,-0.12787 0,-0.18898 -0.01709,-0.0683 -0.07741,-0.12067 -0.09449,-0.18899 -0.01527,-0.0611 0.01527,-0.12788 0,-0.18899 -0.01709,-0.0683 -0.08291,-0.11952 -0.09449,-0.18899 -0.02072,-0.12428 0.01781,-0.25325 0,-0.37798 -0.02817,-0.19721 -0.149921,-0.37162 -0.18899,-0.56696 -0.03089,-0.15443 0.0259,-0.31712 0,-0.47247 -0.03275,-0.1965 -0.149918,-0.37162 -0.188989,-0.56696 -0.02471,-0.12355 0.03056,-0.25575 0,-0.37798 -0.01709,-0.0683 -0.07222,-0.12217 -0.09449,-0.18899 -0.0099,-0.0299 0.01,-0.0646 0,-0.0945 -0.02228,-0.0668 -0.07222,-0.12217 -0.09449,-0.18899 -0.01723,-0.0517 0,-0.58759 0,-0.66146 0,-0.0315 0.01407,-0.0663 0,-0.0945 -0.01992,-0.0398 -0.08041,-0.0522 -0.09449,-0.0945 -0.01992,-0.0598 0,-0.12599 0,-0.18899 0,-0.22048 0,-0.44097 0,-0.66145 0,-0.18899 0,-0.37798 0,-0.56697 0,-0.0621 -0.01778,-0.23017 0,-0.28348 0.02228,-0.0668 0.07222,-0.12217 0.09449,-0.18899 0.01992,-0.0598 -0.01992,-0.12922 0,-0.18899 0.02228,-0.0668 0.07222,-0.12217 0.09449,-0.18898 0.02835,-0.085 -0.02835,-0.19844 0,-0.28349 0.01408,-0.0423 0.07457,-0.0547 0.09449,-0.0945 0.02817,-0.0563 -0.01992,-0.12923 0,-0.18899 0.228156,-0.68446 -0.02724,0.14898 0.188989,-0.28348 0.0297,-0.0594 -0.0297,-0.31859 0,-0.37798 0.01992,-0.0398 0.07457,-0.0546 0.09449,-0.0945 0.02817,-0.0563 -0.01992,-0.12923 0,-0.18899 0.02228,-0.0668 0.07222,-0.12217 0.0945,-0.18899 0.0099,-0.0299 -0.01408,-0.0663 0,-0.0945 0.01992,-0.0398 0.08041,-0.0522 0.09449,-0.0945 0.01992,-0.0598 -0.01992,-0.12922 0,-0.18898 0.01408,-0.0423 0.07457,-0.0547 0.09449,-0.0945 0.01408,-0.0282 0,-0.063 0,-0.0945 0,-0.063 -0.01992,-0.12923 0,-0.18899 0.01408,-0.0423 0.07457,-0.0546 0.09449,-0.0945 0.05033,-0.10066 -0.05033,-0.0883 0,-0.18899 0.01992,-0.0398 0.07457,-0.0547 0.09449,-0.0945 0.02817,-0.0563 -0.02817,-0.13264 0,-0.18898 0.01992,-0.0399 0.08041,-0.0522 0.09449,-0.0945 0.01992,-0.0598 -0.01992,-0.12922 0,-0.18899 0.01408,-0.0423 0.07457,-0.0547 0.09449,-0.0945 0.01408,-0.0282 -0.0099,-0.0646 0,-0.0945 0.02228,-0.0668 0.07222,-0.12216 0.0945,-0.18898 0.0099,-0.0299 -0.01408,-0.0663 0,-0.0945 0.01992,-0.0398 0.07457,-0.0547 0.09449,-0.0945 0.02817,-0.0564 -0.01992,-0.12923 0,-0.18899 0.02228,-0.0668 0.05542,-0.13038 0.09449,-0.18899 0.02471,-0.0371 0.08041,-0.0522 0.09449,-0.0945 0.01992,-0.0598 -0.01992,-0.12923 0,-0.18899 0.02817,-0.0845 0.13957,-0.11486 0.188989,-0.18899 0.0315,-0.063 0.063,-0.12599 0.09449,-0.18899 0,-0.0315 -0.01408,-0.0663 0,-0.0945 0.01992,-0.0398 0.07457,-0.0547 0.0945,-0.0945 0.01408,-0.0282 -0.02228,-0.0722 0,-0.0945 0.02228,-0.0223 0.07222,0.0223 0.09449,0 0.02228,-0.0223 -0.02228,-0.0722 0,-0.0945 0.02228,-0.0223 0.07222,0.0223 0.09449,0 0.02228,-0.0223 -0.02228,-0.0722 0,-0.0945 0.02228,-0.0223 0.07222,0.0223 0.09449,0 0.02228,-0.0223 -0.02228,-0.0722 0,-0.0945 0.02228,-0.0223 0.07222,0.0223 0.0945,0 0.195511,-0.19551 -0.298767,0.008 0.09449,-0.18899 0.02817,-0.0141 0.07222,0.0223 0.09449,0 0.02228,-0.0223 -0.02228,-0.0722 0,-0.0945 0.0091,-0.009 0.150754,0.008 0.188989,0 0.127347,-0.0255 0.251984,-0.063 0.377976,-0.0945 z"
       id="path1607"
       inkscape:connector-curvature="0" />
  </g>
</svg>
