<?xml version="1.0" encoding="UTF-8" standalone="no"?>
<!-- Created with Inkscape (http://www.inkscape.org/) -->

<svg
   xmlns:dc="http://purl.org/dc/elements/1.1/"
   xmlns:cc="http://creativecommons.org/ns#"
   xmlns:rdf="http://www.w3.org/1999/02/22-rdf-syntax-ns#"
   xmlns:svg="http://www.w3.org/2000/svg"
   xmlns="http://www.w3.org/2000/svg"
   xmlns:sodipodi="http://sodipodi.sourceforge.net/DTD/sodipodi-0.dtd"
   xmlns:inkscape="http://www.inkscape.org/namespaces/inkscape"
   width="210mm"
   height="297mm"
   viewBox="0 0 210 297"
   version="1.1"
   id="svg8"
   inkscape:version="0.92.5 (2060ec1f9f, 2020-04-08)"
   sodipodi:docname="TikZ_Feynman__2_.svg">
  <defs
     id="defs2" />
  <sodipodi:namedview
     id="base"
     pagecolor="#ffffff"
     bordercolor="#666666"
     borderopacity="1.0"
     inkscape:pageopacity="0.0"
     inkscape:pageshadow="2"
     inkscape:zoom="1.979899"
     inkscape:cx="-97.142857"
     inkscape:cy="512.01775"
     inkscape:document-units="mm"
     inkscape:current-layer="g825"
     showgrid="false"
     inkscape:window-width="1920"
     inkscape:window-height="1015"
     inkscape:window-x="0"
     inkscape:window-y="0"
     inkscape:window-maximized="1" />
  <metadata
     id="metadata5">
    <rdf:RDF>
      <cc:Work
         rdf:about="">
        <dc:format>image/svg+xml</dc:format>
        <dc:type
           rdf:resource="http://purl.org/dc/dcmitype/StillImage" />
        <dc:title></dc:title>
      </cc:Work>
    </rdf:RDF>
  </metadata>
  <g
     inkscape:label="Layer 1"
     inkscape:groupmode="layer"
     id="layer1">
    <g
       transform="matrix(0.35277777,0,0,0.35277777,-57.775798,120.80024)"
       inkscape:label="trianom"
       id="g823">
      <g
         id="g825">
        <g
           transform="scale(1,-1)"
           id="g827">
          <path
             inkscape:connector-curvature="0"
             id="path829"
             style="fill:none;stroke:#000000;stroke-width:0.79701;stroke-linecap:butt;stroke-linejoin:miter;stroke-miterlimit:10;stroke-dasharray:none;stroke-opacity:1"
             d="M 91.188,-0.398 V -0.91 l 0.624,-0.512 0.454,-0.512 0.168,-0.511 -0.168,-0.512 -0.454,-0.512 -0.624,-0.511 -0.622,-0.512 -0.457,-0.512 -0.164,-0.512 0.164,-0.511 0.457,-0.512 0.622,-0.512 0.624,-0.511 0.454,-0.512 0.168,-0.512 -0.168,-0.512 -0.454,-0.511 -0.624,-0.512 -0.622,-0.512 -0.457,-0.512 -0.164,-0.511 0.164,-0.512 0.457,-0.512 0.622,-0.511 0.624,-0.512 0.454,-0.512 0.168,-0.512 -0.168,-0.511 -0.454,-0.512 -0.624,-0.512 -0.622,-0.511 -0.457,-0.512 -0.164,-0.512 0.164,-0.512 0.457,-0.511 0.622,-0.512 0.624,-0.512 0.454,-0.511 0.168,-0.512 -0.168,-0.512 -0.454,-0.512 -0.624,-0.511 -0.622,-0.512 -0.457,-0.512 -0.164,-0.512 0.164,-0.511 0.457,-0.512 0.622,-0.512 0.624,-0.511 0.454,-0.512 0.168,-0.512 -0.168,-0.512 -0.454,-0.511 -0.624,-0.512 -0.622,-0.512 -0.457,-0.511 -0.164,-0.512 0.164,-0.512 0.457,-0.512 0.622,-0.511 0.624,-0.512 0.454,-0.512 0.168,-0.511 -0.168,-0.512 -0.454,-0.512 -0.624,-0.512 -0.622,-0.511 -0.457,-0.512 -0.164,-0.512 0.164,-0.511 0.457,-0.512 0.622,-0.512 0.624,-0.512 0.454,-0.507 0.168,-0.512 -0.168,-0.512 -0.454,-0.512 -0.624,-0.511 -0.622,-0.512 -0.457,-0.512 -0.164,-0.511 0.164,-0.512 0.457,-0.512 0.622,-0.512 0.624,-0.511 0.454,-0.512 0.168,-0.512 -0.168,-0.512 -0.454,-0.511 -0.624,-0.512 -0.622,-0.512 -0.457,-0.511 -0.164,-0.512 0.164,-0.512 0.457,-0.512 0.622,-0.511 0.624,-0.512 0.454,-0.512 0.168,-0.511 -0.168,-0.512 -0.454,-0.512 -0.624,-0.512 -0.622,-0.511 -0.457,-0.512 -0.164,-0.512 0.164,-0.511 0.457,-0.512 0.622,-0.512 0.624,-0.512 0.454,-0.511 0.168,-0.512 -0.168,-0.512 -0.454,-0.511 -0.624,-0.512 -0.622,-0.512 -0.457,-0.512 -0.164,-0.511 0.164,-0.512 0.457,-0.512 0.622,-0.511 0.624,-0.512 0.454,-0.512 0.168,-0.512 -0.168,-0.511 -0.454,-0.512 -0.624,-0.512 -0.622,-0.512 -0.457,-0.511 -0.164,-0.512 1.243,-1.062" />
        </g>
        <text
           id="text833"
           style="font-variant:normal;font-weight:normal;font-size:13.69759941px;font-family:cmsy10;-inkscape-font-specification:cmsy10;writing-mode:lr-tb;fill:#000000;fill-opacity:1;fill-rule:nonzero;stroke:none"
           transform="matrix(0.92366129,0,0,1,98.018906,34.201924)">
          <tspan
             id="tspan831"
             y="0"
             x="0">A</tspan>
        </text>
        <text
           id="text837"
           style="font-variant:normal;font-weight:normal;font-size:9.58832169px;font-family:'DejaVu Sans';-inkscape-font-specification:DejaVuSans;writing-mode:lr-tb;fill:#000000;fill-opacity:1;fill-rule:nonzero;stroke:none"
           transform="matrix(0.9236613,0,0,1,108.12,36.257394)">
          <tspan
             id="tspan835"
             y="0"
             x="0">µ</tspan>
        </text>
        <g
           transform="scale(1,-1)"
           id="g839">
          <path
             inkscape:connector-curvature="0"
             id="path841"
             style="fill:none;stroke:#000000;stroke-width:0.79701;stroke-linecap:butt;stroke-linejoin:miter;stroke-miterlimit:10;stroke-dasharray:none;stroke-opacity:1"
             d="M 91.188,-67.98 58.895,-123.812" />
        </g>
        <path
           inkscape:connector-curvature="0"
           id="path843"
           style="fill:#000000;fill-opacity:1;fill-rule:nonzero;stroke:none"
           d="m 73.039,99.359 6.047,-4.632 -5.047,-2.918 z" />
        <text
           id="text847"
           style="font-variant:normal;font-weight:normal;font-size:13.69759941px;font-family:cmmi10;-inkscape-font-specification:cmmi10;writing-mode:lr-tb;fill:#000000;fill-opacity:1;fill-rule:nonzero;stroke:none"
           transform="matrix(0.92366129,0,0,1,57.727281,95.309144)">
          <tspan
             id="tspan845"
             y="0"
             x="0">f</tspan>
        </text>
        <g
           transform="scale(1,-1)"
           id="g849">
          <path
             inkscape:connector-curvature="0"
             id="path851"
             style="fill:none;stroke:#000000;stroke-width:0.79701;stroke-linecap:butt;stroke-linejoin:miter;stroke-miterlimit:10;stroke-dasharray:none;stroke-opacity:1"
             d="m 58.895,-123.812 -0.446,-0.254 -0.133,-0.793 -0.214,-0.649 -0.36,-0.398 -0.527,-0.11 -0.668,0.141 -0.754,0.289 -0.75,0.285 -0.672,0.141 -0.523,-0.106 -0.36,-0.398 -0.218,-0.652 -0.266,-1.586 -0.215,-0.649 -0.363,-0.398 -0.524,-0.11 -0.668,0.141 -0.754,0.289 -0.753,0.285 -0.668,0.141 -0.528,-0.109 -0.359,-0.399 -0.215,-0.648 -0.266,-1.586 -0.218,-0.649 -0.36,-0.398 -0.523,-0.11 -0.672,0.141 -0.75,0.285 -0.754,0.289 -0.668,0.141 -0.527,-0.109 -0.36,-0.399 -0.214,-0.648 -0.137,-0.793 -0.133,-0.793 -0.215,-0.653 -0.359,-0.398 -0.528,-0.106 -0.668,0.141 -0.753,0.285 -0.75,0.289 -0.672,0.141 -0.524,-0.109 -0.359,-0.399 -0.219,-0.648 -0.133,-0.793 -0.133,-0.797 -0.214,-0.649 -0.364,-0.398 -0.523,-0.109 -0.672,0.144 -0.75,0.285 -0.754,0.289 -0.668,0.141 -0.527,-0.109 -0.36,-0.399 -0.214,-0.648 -0.133,-0.793 -0.133,-0.797 -0.219,-0.649 -0.359,-0.398 -0.527,-0.109 -0.668,0.144 -0.75,0.285 -0.754,0.285 -0.668,0.145 -0.528,-0.109 -0.359,-0.399 -0.219,-0.648 -0.133,-0.797 -0.132,-0.793 -0.215,-0.649 -0.36,-0.398 -0.527,-0.109 -0.668,0.14 -0.754,0.289 -0.75,0.286 -0.672,0.144 -0.523,-0.109 -0.363,-0.399 -0.215,-0.648 -0.133,-0.797 -0.133,-0.793 -0.219,-0.648 -0.359,-0.399 -0.523,-0.109 -0.672,0.14 -0.75,0.289 -0.754,0.286 -0.668,0.14 -0.528,-0.105 -0.359,-0.399 -0.215,-0.652 -0.133,-0.793 -0.136,-0.793 -0.215,-0.648 -0.36,-0.399 -0.527,-0.109 -0.668,0.14 -0.754,0.289 -0.75,0.286 -0.668,0.14 -0.527,-0.109 -0.359,-0.399 -0.219,-0.648 -0.266,-1.586 -0.215,-0.648 -0.359,-0.399 -0.527,-0.109 -0.668,0.14 -0.754,0.286 -0.75,0.289 -0.672,0.14 -0.524,-0.109 -0.363,-0.399 -0.215,-0.648 -0.265,-1.586 -0.219,-0.652 -0.359,-0.395 -0.524,-0.109 -0.672,0.14 -0.75,0.286 -0.754,0.289 -0.668,0.14 -0.527,-0.109 -0.309,-1.613" />
        </g>
        <text
           id="text855"
           style="font-variant:normal;font-weight:normal;font-size:13.69759941px;font-family:cmsy10;-inkscape-font-specification:cmsy10;writing-mode:lr-tb;fill:#000000;fill-opacity:1;fill-rule:nonzero;stroke:none"
           transform="matrix(0.92366129,0,0,1,15.258544,132.67757)">
          <tspan
             id="tspan853"
             y="0"
             x="0">A</tspan>
        </text>
        <text
           id="text859"
           style="font-variant:normal;font-weight:normal;font-size:9.58832169px;font-family:'DejaVu Sans';-inkscape-font-specification:DejaVuSans;writing-mode:lr-tb;fill:#000000;fill-opacity:1;fill-rule:nonzero;stroke:none"
           transform="matrix(0.9236613,0,0,1,25.360906,134.73304)">
          <tspan
             id="tspan857"
             y="0"
             x="0">ν</tspan>
        </text>
        <g
           transform="scale(1,-1)"
           id="g861">
          <path
             inkscape:connector-curvature="0"
             id="path863"
             style="fill:none;stroke:#000000;stroke-width:0.79701;stroke-linecap:butt;stroke-linejoin:miter;stroke-miterlimit:10;stroke-dasharray:none;stroke-opacity:1"
             d="m 91.188,-67.98 32.187,-55.805" />
        </g>
        <path
           inkscape:connector-curvature="0"
           id="path865"
           style="fill:#000000;fill-opacity:1;fill-rule:nonzero;stroke:none"
           d="m 104.51508,91.020531 0.992,7.555 5.051,-2.914 z" />
        <text
           id="text869"
           style="font-variant:normal;font-weight:normal;font-size:13.69759941px;font-family:cmmi10;-inkscape-font-specification:cmmi10;writing-mode:lr-tb;fill:#000000;fill-opacity:1;fill-rule:nonzero;stroke:none"
           transform="matrix(0.92366129,0,0,1,114.63758,96.32959)">
          <tspan
             id="tspan867"
             y="0"
             x="0">f</tspan>
        </text>
        <g
           transform="scale(1,-1)"
           id="g871">
          <path
             inkscape:connector-curvature="0"
             id="path873"
             style="fill:none;stroke:#000000;stroke-width:0.79701;stroke-linecap:butt;stroke-linejoin:miter;stroke-miterlimit:10;stroke-dasharray:none;stroke-opacity:1"
             d="m 123.375,-123.785 -64.48,-0.027" />
        </g>
        <path
           inkscape:connector-curvature="0"
           id="path875"
           style="fill:#000000;fill-opacity:1;fill-rule:nonzero;stroke:none"
           d="m 94.148,123.801 -7.039,2.91 0.003,-5.828 z" />
        <text
           id="text879"
           style="font-variant:normal;font-weight:normal;font-size:13.69759941px;font-family:cmmi10;-inkscape-font-specification:cmmi10;writing-mode:lr-tb;fill:#000000;fill-opacity:1;fill-rule:nonzero;stroke:none"
           transform="matrix(0.92366129,0,0,1,87.857074,139.39761)">
          <tspan
             id="tspan877"
             y="0"
             x="0">f</tspan>
        </text>
        <g
           transform="scale(1,-1)"
           id="g881">
          <path
             inkscape:connector-curvature="0"
             id="path883"
             style="fill:none;stroke:#000000;stroke-width:0.79701;stroke-linecap:butt;stroke-linejoin:miter;stroke-miterlimit:10;stroke-dasharray:none;stroke-opacity:1"
             d="m 123.375,-123.785 0.441,-0.258 0.754,0.285 0.668,0.141 0.528,-0.113 0.355,-0.399 0.215,-0.652 0.258,-1.586 0.215,-0.653 0.355,-0.398 0.527,-0.109 0.668,0.136 0.754,0.286 0.754,0.281 0.668,0.14 0.524,-0.109 0.359,-0.402 0.211,-0.649 0.133,-0.797 0.129,-0.793 0.211,-0.648 0.359,-0.402 0.523,-0.11 0.668,0.141 0.754,0.281 0.754,0.285 0.672,0.137 0.523,-0.109 0.356,-0.403 0.215,-0.648 0.129,-0.793 0.129,-0.797 0.214,-0.648 0.356,-0.399 0.527,-0.113 0.668,0.14 0.754,0.282 0.754,0.285 0.668,0.141 0.523,-0.114 0.36,-0.398 0.215,-0.653 0.257,-1.585 0.211,-0.653 0.36,-0.398 0.523,-0.11 0.672,0.137 0.75,0.285 0.754,0.281 0.672,0.141 0.523,-0.113 0.36,-0.399 0.211,-0.648 0.129,-0.797 0.128,-0.793 0.215,-0.648 0.356,-0.403 0.527,-0.109 0.668,0.141 0.754,0.281 0.754,0.285 0.668,0.137 0.527,-0.11 0.356,-0.402 0.214,-0.648 0.129,-0.793 0.129,-0.797 0.211,-0.649 0.36,-0.398 0.523,-0.113 0.672,0.14 0.754,0.281 0.75,0.286 0.672,0.14 0.523,-0.113 0.36,-0.399 0.21,-0.652 0.258,-1.586 0.215,-0.652 0.356,-0.399 0.527,-0.109 0.668,0.137 0.754,0.285 0.754,0.281 0.668,0.141 0.527,-0.114 0.356,-0.398 0.214,-0.648 0.129,-0.797 0.129,-0.793 0.211,-0.649 0.359,-0.402 0.524,-0.109 0.672,0.14 0.754,0.282 0.75,0.285 0.672,0.136 0.523,-0.109 0.359,-0.402 0.211,-0.649 0.129,-0.793 0.133,-0.797 0.211,-0.648 0.359,-0.399 0.524,-0.113 0.668,0.141 0.754,0.281 0.754,0.285 0.668,0.141 0.527,-0.113 0.355,-0.399 0.215,-0.652 0.258,-1.586 0.215,-0.652 0.355,-0.399 0.528,-0.109 0.668,0.136 0.754,0.286 0.753,0.281 0.668,0.14 0.524,-0.113 0.359,-0.398 0.211,-0.649 0.133,-0.797 0.129,-0.793 0.211,-0.648 0.359,-0.402 1.586,0.519" />
        </g>
        <text
           id="text887"
           style="font-variant:normal;font-weight:normal;font-size:13.69759941px;font-family:cmsy10;-inkscape-font-specification:cmsy10;writing-mode:lr-tb;fill:#000000;fill-opacity:1;fill-rule:nonzero;stroke:none"
           transform="matrix(0.92366129,0,0,1,148.88096,133.94769)">
          <tspan
             id="tspan885"
             y="0"
             x="0">A</tspan>
        </text>
        <text
           id="text891"
           style="font-variant:normal;font-weight:normal;font-size:9.58832169px;font-family:'DejaVu Sans';-inkscape-font-specification:DejaVuSans;writing-mode:lr-tb;fill:#000000;fill-opacity:1;fill-rule:nonzero;stroke:none"
           transform="matrix(0.9236613,0,0,1,158.98333,136.00178)">
          <tspan
             id="tspan889"
             y="0"
             x="0">ρ</tspan>
        </text>
      </g>
    </g>
  </g>
</svg>
