<?xml version="1.0" encoding="UTF-8" standalone="no"?>
<!-- Created with Inkscape (http://www.inkscape.org/) -->

<svg
   xmlns:dc="http://purl.org/dc/elements/1.1/"
   xmlns:cc="http://creativecommons.org/ns#"
   xmlns:rdf="http://www.w3.org/1999/02/22-rdf-syntax-ns#"
   xmlns:svg="http://www.w3.org/2000/svg"
   xmlns="http://www.w3.org/2000/svg"
   xmlns:sodipodi="http://sodipodi.sourceforge.net/DTD/sodipodi-0.dtd"
   xmlns:inkscape="http://www.inkscape.org/namespaces/inkscape"
   sodipodi:docname="triangularanomaly.svg"
   viewBox="0 0 242.42709 210.84238"
   height="210.84238"
   width="242.42709"
   xml:space="preserve"
   id="svg2"
   version="1.1"
   inkscape:version="0.92.5 (2060ec1f9f, 2020-04-08)"><metadata
     id="metadata8"><rdf:RDF><cc:Work
         rdf:about=""><dc:format>image/svg+xml</dc:format><dc:type
           rdf:resource="http://purl.org/dc/dcmitype/StillImage" /><dc:title></dc:title></cc:Work></rdf:RDF></metadata><defs
     id="defs6"><marker
       inkscape:stockid="Arrow1Mstart"
       orient="auto"
       refY="0.0"
       refX="0.0"
       id="Arrow1Mstart"
       style="overflow:visible"
       inkscape:isstock="true"><path
         id="path893"
         d="M 0.0,0.0 L 5.0,-5.0 L -12.5,0.0 L 5.0,5.0 L 0.0,0.0 z "
         style="fill-rule:evenodd;stroke:#000000;stroke-width:1pt;stroke-opacity:1;fill:#000000;fill-opacity:1"
         transform="scale(0.4) translate(10,0)" /></marker><marker
       inkscape:stockid="Arrow1Lstart"
       orient="auto"
       refY="0.0"
       refX="0.0"
       id="Arrow1Lstart"
       style="overflow:visible"
       inkscape:isstock="true"><path
         id="path887"
         d="M 0.0,0.0 L 5.0,-5.0 L -12.5,0.0 L 5.0,5.0 L 0.0,0.0 z "
         style="fill-rule:evenodd;stroke:#000000;stroke-width:1pt;stroke-opacity:1;fill:#000000;fill-opacity:1"
         transform="scale(0.8) translate(12.5,0)" /></marker><marker
       inkscape:stockid="Arrow1Lend"
       orient="auto"
       refY="0.0"
       refX="0.0"
       id="Arrow1Lend"
       style="overflow:visible;"
       inkscape:isstock="true"><path
         id="path890"
         d="M 0.0,0.0 L 5.0,-5.0 L -12.5,0.0 L 5.0,5.0 L 0.0,0.0 z "
         style="fill-rule:evenodd;stroke:#000000;stroke-width:1pt;stroke-opacity:1;fill:#000000;fill-opacity:1"
         transform="scale(0.8) rotate(180) translate(12.5,0)" /></marker><marker
       inkscape:stockid="Arrow1Mstart"
       orient="auto"
       refY="0"
       refX="0"
       id="Arrow1Mstart-3"
       style="overflow:visible"
       inkscape:isstock="true"><path
         inkscape:connector-curvature="0"
         id="path893-6"
         d="M 0,0 5,-5 -12.5,0 5,5 Z"
         style="fill:#000000;fill-opacity:1;fill-rule:evenodd;stroke:#000000;stroke-width:1.00000003pt;stroke-opacity:1"
         transform="matrix(0.4,0,0,0.4,4,0)" /></marker><marker
       inkscape:stockid="Arrow1Mstart"
       orient="auto"
       refY="0"
       refX="0"
       id="Arrow1Mstart-3-5"
       style="overflow:visible"
       inkscape:isstock="true"><path
         inkscape:connector-curvature="0"
         id="path893-6-3"
         d="M 0,0 5,-5 -12.5,0 5,5 Z"
         style="fill:#000000;fill-opacity:1;fill-rule:evenodd;stroke:#000000;stroke-width:1.00000003pt;stroke-opacity:1"
         transform="matrix(0.4,0,0,0.4,4,0)" /></marker><marker
       inkscape:stockid="Arrow1Mstart"
       orient="auto"
       refY="0"
       refX="0"
       id="Arrow1Mstart-3-6"
       style="overflow:visible"
       inkscape:isstock="true"><path
         inkscape:connector-curvature="0"
         id="path893-6-2"
         d="M 0,0 5,-5 -12.5,0 5,5 Z"
         style="fill:#000000;fill-opacity:1;fill-rule:evenodd;stroke:#000000;stroke-width:1.00000003pt;stroke-opacity:1"
         transform="matrix(0.4,0,0,0.4,4,0)" /></marker></defs><sodipodi:namedview
     pagecolor="#ffffff"
     bordercolor="#666666"
     borderopacity="1"
     objecttolerance="10"
     gridtolerance="10"
     guidetolerance="10"
     inkscape:pageopacity="0"
     inkscape:pageshadow="2"
     inkscape:window-width="1920"
     inkscape:window-height="1055"
     id="namedview4"
     showgrid="false"
     inkscape:zoom="8.9545566"
     inkscape:cx="111.87549"
     inkscape:cy="88.095128"
     inkscape:window-x="1920"
     inkscape:window-y="0"
     inkscape:window-maximized="1"
     inkscape:current-layer="g1033" /><g
     id="g10"
     inkscape:groupmode="layer"
     inkscape:label="triangularanomaly"
     transform="matrix(1.3333333,0,0,1.3333333,0,8.6043925e-6)"><g
       id="g12"><g
   id="g14"
   transform="scale(1,-1)"><path
     d="m 91.18,0 v -0.512 l 0.625,-0.511 0.453,-0.512 0.168,-0.512 -0.168,-0.512 -0.453,-0.511 -0.625,-0.512 -0.621,-0.512 -0.457,-0.511 -0.164,-0.512 0.164,-0.512 0.457,-0.512 0.621,-0.511 0.625,-0.512 0.453,-0.512 0.168,-0.512 -0.168,-0.511 -0.453,-0.512 -0.625,-0.512 -0.621,-0.511 -0.457,-0.512 -0.164,-0.512 0.164,-0.512 0.457,-0.511 0.621,-0.512 0.625,-0.512 0.453,-0.511 0.168,-0.512 -0.168,-0.512 -0.453,-0.512 -0.625,-0.511 -0.621,-0.512 -0.457,-0.512 -0.164,-0.511 0.164,-0.512 0.457,-0.512 0.621,-0.512 0.625,-0.511 0.453,-0.512 0.168,-0.512 -0.168,-0.511 -0.453,-0.512 -0.625,-0.512 -0.621,-0.512 -0.457,-0.511 -0.164,-0.512 0.164,-0.512 0.457,-0.511 0.621,-0.512 0.625,-0.512 0.453,-0.512 0.168,-0.511 -0.168,-0.512 -0.453,-0.512 -0.625,-0.512 -0.621,-0.511 -0.457,-0.512 -0.164,-0.512 0.164,-0.511 0.457,-0.512 0.621,-0.512 0.625,-0.512 0.453,-0.511 0.168,-0.512 -0.168,-0.512 -0.453,-0.511 -0.625,-0.512 -0.621,-0.512 -0.457,-0.512 -0.164,-0.511 0.164,-0.512 0.457,-0.512 0.621,-0.511 0.625,-0.512 0.453,-0.508 0.168,-0.512 -0.168,-0.511 -0.453,-0.512 -0.625,-0.512 -0.621,-0.512 -0.457,-0.511 -0.164,-0.512 0.164,-0.512 0.457,-0.511 0.621,-0.512 0.625,-0.512 0.453,-0.512 0.168,-0.511 -0.168,-0.512 -0.453,-0.512 -0.625,-0.511 -0.621,-0.512 -0.457,-0.512 -0.164,-0.512 0.164,-0.511 0.457,-0.512 0.621,-0.512 0.625,-0.512 0.453,-0.511 0.168,-0.512 -0.168,-0.512 -0.453,-0.511 -0.625,-0.512 -0.621,-0.512 -0.457,-0.512 -0.164,-0.511 0.164,-0.512 0.457,-0.512 0.621,-0.511 0.625,-0.512 0.453,-0.512 0.168,-0.512 -0.168,-0.511 -0.453,-0.512 -0.625,-0.512 -0.621,-0.511 -0.457,-0.512 -0.164,-0.512 0.164,-0.512 0.457,-0.511 0.621,-0.512 0.625,-0.512 0.453,-0.512 0.168,-0.511 -0.168,-0.512 -0.453,-0.512 -0.625,-0.511 -0.621,-0.512 -0.457,-0.512 -0.164,-0.512 1.242,-1.062"
     style="fill:none;stroke:#000000;stroke-width:0.79701;stroke-linecap:butt;stroke-linejoin:miter;stroke-miterlimit:10;stroke-dasharray:none;stroke-opacity:1"
     id="path16"
     inkscape:connector-curvature="0" /></g><text
   transform="matrix(0.92366129,0,0,1,98.012292,33.803923)"
   style="font-variant:normal;font-weight:normal;font-size:13.69759941px;font-family:cmsy10;-inkscape-font-specification:cmsy10;writing-mode:lr-tb;fill:#000000;fill-opacity:1;fill-rule:nonzero;stroke:none"
   id="text20"><tspan
     x="0"
     y="0"
     id="tspan18">A</tspan></text>









<text
   transform="matrix(0.9236613,0,0,1,108.11339,35.859393)"
   style="font-variant:normal;font-weight:normal;font-size:9.58832073px;font-family:'DejaVu Sans';-inkscape-font-specification:DejaVuSans;writing-mode:lr-tb;fill:#000000;fill-opacity:1;fill-rule:nonzero;stroke:none"
   id="text24"><tspan
     x="0"
     y="0"
     id="tspan22">µ</tspan></text>









<g
   id="g26"
   transform="scale(1,-1)"><path
     d="M 91.18,-67.582 58.887,-123.414"
     style="fill:none;stroke:#000000;stroke-width:0.79701;stroke-linecap:butt;stroke-linejoin:miter;stroke-miterlimit:10;stroke-dasharray:none;stroke-opacity:1"
     id="path28"
     inkscape:connector-curvature="0" /></g><path
   d="M 73.031,98.961 79.078,94.328 74.031,91.41 Z"
   style="fill:#000000;fill-opacity:1;fill-rule:nonzero;stroke:none"
   id="path30"
   inkscape:connector-curvature="0" /><text
   transform="matrix(0.92366129,0,0,1,57.720668,94.911142)"
   style="font-variant:normal;font-weight:normal;font-size:13.69759941px;font-family:cmmi10;-inkscape-font-specification:cmmi10;writing-mode:lr-tb;fill:#000000;fill-opacity:1;fill-rule:nonzero;stroke:none"
   id="text34"><tspan
     x="0"
     y="0"
     id="tspan32">f</tspan></text>









<g
   id="g36"
   transform="scale(1,-1)"><path
     d="m 58.887,-123.414 -0.446,-0.254 -0.132,-0.793 -0.215,-0.648 -0.36,-0.399 -0.527,-0.109 -0.668,0.14 -0.754,0.289 -0.75,0.286 -0.672,0.14 -0.523,-0.105 -0.36,-0.399 -0.218,-0.652 -0.266,-1.586 -0.215,-0.648 -0.363,-0.399 -0.523,-0.109 -0.668,0.14 -0.754,0.29 -0.754,0.285 -0.668,0.14 -0.528,-0.109 -0.359,-0.398 -0.215,-0.649 -0.265,-1.586 -0.219,-0.648 -0.36,-0.399 -0.523,-0.109 -0.672,0.141 -0.75,0.285 -0.754,0.289 -0.668,0.14 -0.527,-0.109 -0.359,-0.398 -0.215,-0.649 -0.137,-0.793 -0.133,-0.793 -0.215,-0.652 -0.359,-0.399 -0.527,-0.105 -0.668,0.141 -0.754,0.285 -0.75,0.289 -0.672,0.14 -0.524,-0.109 -0.359,-0.398 -0.219,-0.649 -0.132,-0.793 -0.133,-0.797 -0.215,-0.648 -0.363,-0.399 -0.524,-0.109 -0.672,0.145 -0.75,0.285 -0.754,0.289 -0.668,0.14 -0.527,-0.109 -0.359,-0.398 -0.215,-0.649 -0.133,-0.793 -0.133,-0.797 -0.219,-0.648 -0.359,-0.399 -0.527,-0.109 -0.668,0.145 -0.75,0.285 -0.754,0.285 -0.668,0.144 -0.527,-0.109 -0.36,-0.398 -0.219,-0.649 -0.132,-0.797 -0.133,-0.793 -0.215,-0.648 -0.359,-0.399 -0.528,-0.109 -0.668,0.141 -0.754,0.289 -0.75,0.285 -0.672,0.144 -0.523,-0.109 -0.363,-0.398 -0.215,-0.649 -0.133,-0.797 -0.133,-0.793 -0.218,-0.648 -0.36,-0.398 -0.523,-0.11 -0.672,0.141 -0.75,0.289 -0.754,0.285 -0.668,0.141 -0.527,-0.106 -0.36,-0.398 -0.215,-0.653 -0.132,-0.793 -0.137,-0.793 -0.215,-0.648 -0.359,-0.398 -0.528,-0.11 -0.668,0.141 -0.754,0.289 -0.75,0.285 -0.668,0.141 -0.527,-0.11 -0.359,-0.398 -0.219,-0.649 -0.266,-1.586 -0.214,-0.648 -0.36,-0.398 -0.527,-0.11 -0.668,0.141 -0.754,0.285 -0.75,0.289 -0.672,0.141 -0.523,-0.11 -0.364,-0.398 -0.214,-0.649 -0.266,-1.586 -0.219,-0.652 -0.359,-0.394 -0.524,-0.11 -0.672,0.141 -0.75,0.285 -0.753,0.289 -0.668,0.141 -0.528,-0.11 -0.308,-1.613"
     style="fill:none;stroke:#000000;stroke-width:0.79701;stroke-linecap:butt;stroke-linejoin:miter;stroke-miterlimit:10;stroke-dasharray:none;stroke-opacity:1"
     id="path38"
     inkscape:connector-curvature="0" /></g><text
   transform="matrix(0.92366129,0,0,1,15.251932,132.27957)"
   style="font-variant:normal;font-weight:normal;font-size:13.69759941px;font-family:cmsy10;-inkscape-font-specification:cmsy10;writing-mode:lr-tb;fill:#000000;fill-opacity:1;fill-rule:nonzero;stroke:none"
   id="text42"><tspan
     x="0"
     y="0"
     id="tspan40">A</tspan></text>









<text
   transform="matrix(0.9236613,0,0,1,25.354293,134.33504)"
   style="font-variant:normal;font-weight:normal;font-size:9.58832073px;font-family:'DejaVu Sans';-inkscape-font-specification:DejaVuSans;writing-mode:lr-tb;fill:#000000;fill-opacity:1;fill-rule:nonzero;stroke:none"
   id="text46"><tspan
     x="0"
     y="0"
     id="tspan44">ν</tspan></text>









<g
   id="g48"
   transform="scale(1,-1)"><path
     d="m 91.18,-67.582 32.187,-55.805"
     style="fill:none;stroke:#000000;stroke-width:0.79701;stroke-linecap:butt;stroke-linejoin:miter;stroke-miterlimit:10;stroke-dasharray:none;stroke-opacity:1"
     id="path50"
     inkscape:connector-curvature="0" /></g><path
   d="m 104.508,90.621 0.992,7.555 5.051,-2.914 z"
   style="fill:#000000;fill-opacity:1;fill-rule:nonzero;stroke:none"
   id="path52"
   inkscape:connector-curvature="0" /><text
   transform="matrix(0.92366129,0,0,1,114.63097,95.931588)"
   style="font-variant:normal;font-weight:normal;font-size:13.69759941px;font-family:cmmi10;-inkscape-font-specification:cmmi10;writing-mode:lr-tb;fill:#000000;fill-opacity:1;fill-rule:nonzero;stroke:none"
   id="text56"><tspan
     x="0"
     y="0"
     id="tspan54">f</tspan></text>









<g
   id="g58"
   transform="scale(1,-1)"><path
     d="m 123.367,-123.387 -64.48,-0.027"
     style="fill:none;stroke:#000000;stroke-width:0.79701;stroke-linecap:butt;stroke-linejoin:miter;stroke-miterlimit:10;stroke-dasharray:none;stroke-opacity:1"
     id="path60"
     inkscape:connector-curvature="0" /></g><path
   d="m 94.141,123.402 -7.039,2.91 0.003,-5.828 z"
   style="fill:#000000;fill-opacity:1;fill-rule:nonzero;stroke:none"
   id="path62"
   inkscape:connector-curvature="0" /><text
   transform="matrix(0.92366129,0,0,1,87.85046,138.99961)"
   style="font-variant:normal;font-weight:normal;font-size:13.69759941px;font-family:cmmi10;-inkscape-font-specification:cmmi10;writing-mode:lr-tb;fill:#000000;fill-opacity:1;fill-rule:nonzero;stroke:none"
   id="text66"><tspan
     x="0"
     y="0"
     id="tspan64">f</tspan></text>









<g
   id="g68"
   transform="scale(1,-1)"><path
     d="m 123.367,-123.387 0.442,-0.258 0.753,0.286 0.668,0.14 0.528,-0.113 0.355,-0.398 0.215,-0.653 0.258,-1.586 0.215,-0.652 0.355,-0.399 0.528,-0.109 0.668,0.137 0.753,0.285 0.754,0.281 0.668,0.141 0.524,-0.11 0.359,-0.402 0.211,-0.648 0.133,-0.797 0.129,-0.793 0.211,-0.649 0.359,-0.402 0.524,-0.109 0.668,0.14 0.753,0.282 0.754,0.285 0.672,0.136 0.524,-0.109 0.355,-0.402 0.215,-0.649 0.129,-0.793 0.129,-0.797 0.215,-0.648 0.355,-0.398 0.527,-0.114 0.668,0.141 0.754,0.281 0.754,0.285 0.668,0.141 0.524,-0.113 0.359,-0.399 0.215,-0.652 0.258,-1.586 0.211,-0.652 0.359,-0.399 0.523,-0.109 0.672,0.136 0.75,0.286 0.754,0.281 0.672,0.141 0.524,-0.114 0.359,-0.398 0.211,-0.649 0.129,-0.797 0.129,-0.792 0.214,-0.649 0.356,-0.402 0.527,-0.11 0.668,0.141 0.754,0.281 0.754,0.285 0.668,0.137 0.527,-0.109 0.356,-0.403 0.215,-0.648 0.129,-0.793 0.128,-0.797 0.211,-0.648 0.36,-0.399 0.523,-0.113 0.672,0.141 0.754,0.281 0.75,0.285 0.672,0.141 0.523,-0.114 0.36,-0.398 0.211,-0.652 0.257,-1.586 0.215,-0.653 0.356,-0.398 0.527,-0.11 0.668,0.137 0.754,0.285 0.754,0.282 0.668,0.14 0.527,-0.113 0.356,-0.399 0.215,-0.648 0.128,-0.797 0.129,-0.793 0.211,-0.648 0.36,-0.403 0.523,-0.109 0.672,0.141 0.754,0.281 0.75,0.285 0.672,0.137 0.523,-0.11 0.36,-0.402 0.211,-0.648 0.128,-0.793 0.133,-0.797 0.211,-0.649 0.36,-0.398 0.523,-0.113 0.668,0.14 0.754,0.282 0.754,0.285 0.668,0.14 0.527,-0.113 0.356,-0.398 0.214,-0.653 0.258,-1.586 0.215,-0.652 0.355,-0.398 0.528,-0.11 0.668,0.137 0.754,0.285 0.754,0.281 0.668,0.141 0.523,-0.113 0.359,-0.399 0.211,-0.648 0.133,-0.797 0.129,-0.793 0.211,-0.649 0.359,-0.402 1.586,0.52"
     style="fill:none;stroke:#000000;stroke-width:0.79701;stroke-linecap:butt;stroke-linejoin:miter;stroke-miterlimit:10;stroke-dasharray:none;stroke-opacity:1"
     id="path70"
     inkscape:connector-curvature="0" /></g><text
   transform="matrix(0.92366129,0,0,1,148.87434,133.54969)"
   style="font-variant:normal;font-weight:normal;font-size:13.69759941px;font-family:cmsy10;-inkscape-font-specification:cmsy10;writing-mode:lr-tb;fill:#000000;fill-opacity:1;fill-rule:nonzero;stroke:none"
   id="text74"><tspan
     x="0"
     y="0"
     id="tspan72">A</tspan></text>









<text
   transform="matrix(0.9236613,0,0,1,158.97671,135.60378)"
   style="font-variant:normal;font-weight:normal;font-size:9.58832073px;font-family:'DejaVu Sans';-inkscape-font-specification:DejaVuSans;writing-mode:lr-tb;fill:#000000;fill-opacity:1;fill-rule:nonzero;stroke:none"
   id="text78"><tspan
     x="0"
     y="0"
     id="tspan76">ρ</tspan></text>









</g><path
       style="fill:none;stroke:#000000;stroke-width:0.75px;stroke-linecap:butt;stroke-linejoin:miter;stroke-opacity:1;marker-start:url(#Arrow1Mstart)"
       d="m 82.32339,86.543773 c 9.720467,-6.237091 17.653491,0.670365 17.653491,0.670365"
       id="path885"
       inkscape:connector-curvature="0" /><path
       style="fill:none;stroke:#000000;stroke-width:0.75px;stroke-linecap:butt;stroke-linejoin:miter;stroke-opacity:1;marker-start:url(#Arrow1Mstart-3)"
       d="m 79.166748,121.71143 c -10.270719,-5.28215 -8.272771,-15.6095 -8.272771,-15.6095"
       id="path885-7"
       inkscape:connector-curvature="0" /><path
       style="fill:none;stroke:#000000;stroke-width:0.75px;stroke-linecap:butt;stroke-linejoin:miter;stroke-opacity:1;marker-start:url(#Arrow1Mstart-3-5)"
       d="m 111.91093,107.51782 c 0.14658,11.54847 -9.91294,14.62288 -9.91294,14.62288"
       id="path885-7-5"
       inkscape:connector-curvature="0" /><g
       word-spacing="normal"
       letter-spacing="normal"
       font-size-adjust="none"
       font-stretch="normal"
       font-weight="normal"
       font-variant="normal"
       font-style="normal"
       stroke-miterlimit="10.433"
       xml:space="preserve"
       transform="matrix(0.13415711,0,0,-0.13415711,23.057074,145.43342)"
       id="g1033"
       style="font-style:normal;font-variant:normal;font-weight:normal;font-stretch:normal;letter-spacing:normal;word-spacing:normal;text-anchor:start;fill:none;fill-opacity:1;fill-rule:evenodd;stroke:#000000;stroke-width:2.24515414;stroke-linecap:butt;stroke-linejoin:miter;stroke-miterlimit:10.43299961;stroke-dasharray:none;stroke-dashoffset:0;stroke-opacity:1"><g
         id="g1031"
         transform="translate(373.96445,74.917752)"><g
           id="g1155"
           transform="matrix(0.3012034,0,0,-0.3012034,-52.710595,181.82032)"
           xml:space="preserve"
           stroke-miterlimit="10.433"
           font-style="normal"
           font-variant="normal"
           font-weight="normal"
           font-stretch="normal"
           font-size-adjust="none"
           letter-spacing="normal"
           word-spacing="normal"
           style="font-style:normal;font-variant:normal;font-weight:normal;font-stretch:normal;letter-spacing:normal;word-spacing:normal;text-anchor:start;fill:none;fill-opacity:1;fill-rule:evenodd;stroke:#000000;stroke-linecap:butt;stroke-linejoin:miter;stroke-miterlimit:10.43299961;stroke-dasharray:none;stroke-dashoffset:0;stroke-opacity:1"><g
             id="g1153"
             transform="matrix(10.146405,0,0,10.146405,-397.95719,-1071.4704)"
             style="stroke-width:0.22127582"><g
               word-spacing="normal"
               letter-spacing="normal"
               font-size-adjust="none"
               font-stretch="normal"
               font-weight="normal"
               font-variant="normal"
               font-style="normal"
               stroke-miterlimit="10.433"
               xml:space="preserve"
               transform="matrix(0.3012034,0,0,-0.3012034,-52.710595,181.82032)"
               id="content"
               style="font-style:normal;font-variant:normal;font-weight:normal;font-stretch:normal;letter-spacing:normal;word-spacing:normal;text-anchor:start;fill:none;fill-opacity:1;fill-rule:evenodd;stroke:#000000;stroke-width:0.025432;stroke-linecap:butt;stroke-linejoin:miter;stroke-miterlimit:10.43299961;stroke-dasharray:none;stroke-dashoffset:0;stroke-opacity:1"><path
                 id="path1136"
                 d="m 475.3,437.34 v 0.09 l -0.01,0.08 -0.01,0.09 -0.01,0.09 -0.02,0.08 -0.02,0.08 -0.03,0.09 -0.03,0.08 -0.03,0.07 -0.04,0.08 -0.04,0.08 -0.04,0.07 -0.05,0.07 -0.05,0.07 -0.06,0.07 -0.06,0.06 -0.06,0.06 -0.07,0.06 -0.07,0.05 -0.07,0.06 -0.08,0.04 -0.07,0.05 -0.09,0.04 -0.08,0.04 -0.09,0.03 -0.09,0.03 -0.1,0.03 -0.1,0.02 -0.1,0.01 -0.1,0.02 h -0.11 l -0.11,0.01 c -1.16,0 -2.64,-1.16 -2.64,-2.64 0,-1 0.69,-1.8 1.84,-1.8 1.35,0 2.69,1.3 2.69,2.64 z"
                 inkscape:connector-curvature="0"
                 style="fill:#000000;stroke-width:0" /><path
                 id="path1138"
                 d="m 465.29,403.71 -0.1,-0.35 -0.1,-0.35 -0.11,-0.34 -0.12,-0.33 -0.12,-0.33 -0.14,-0.32 -0.14,-0.31 -0.14,-0.3 -0.16,-0.3 -0.16,-0.29 -0.16,-0.28 -0.18,-0.26 -0.18,-0.26 -0.18,-0.25 -0.2,-0.24 -0.19,-0.23 -0.2,-0.22 -0.21,-0.2 -0.21,-0.19 -0.22,-0.19 -0.22,-0.16 -0.23,-0.16 -0.23,-0.14 -0.23,-0.13 -0.24,-0.12 -0.24,-0.1 -0.25,-0.08 -0.25,-0.08 -0.25,-0.05 -0.25,-0.04 -0.26,-0.03 -0.26,-0.01 c -0.3,0 -1.05,0 -1.95,0.46 1.5,0.36 2.25,1.64 2.25,2.64 0,0.79 -0.55,1.75 -1.89,1.75 -1.25,0 -2.69,-1.05 -2.69,-2.85 0,-2 1.98,-3.09 4.37,-3.09 3.49,0 8.13,2.64 9.38,7.58 l 4.58,18.23 c 0.25,1 0.25,1.69 0.25,1.85 0,2.84 -2.1,4.57 -4.58,4.57 -5.09,0 -7.92,-7.21 -7.92,-7.67 0,-0.5 0.48,-0.5 0.59,-0.5 0.45,0 0.5,0.07 0.89,1 1.25,3.05 3.55,6.08 6.28,6.08 0.71,0 1.6,-0.2 1.6,-2.28 0,-1.16 -0.16,-1.7 -0.35,-2.55 z"
                 inkscape:connector-curvature="0"
                 style="fill:#000000;stroke-width:0" /><path
                 id="path1140"
                 d="m 484.33,449.52 0.16,-0.05 0.16,-0.03 0.16,-0.04 0.15,-0.03 0.14,-0.03 0.15,-0.03 0.14,-0.03 0.13,-0.03 0.13,-0.02 0.13,-0.02 0.12,-0.02 0.12,-0.02 0.12,-0.01 0.11,-0.02 0.11,-0.01 0.11,-0.01 0.1,-0.01 0.1,-0.01 0.09,-0.01 h 0.09 l 0.09,-0.01 h 0.09 l 0.08,-0.01 h 0.08 0.07 0.07 l 0.07,-0.01 h 0.07 0.06 0.06 0.06 0.05 c 4.6,0 7.32,3.14 7.32,3.67 0,0.38 -0.24,0.49 -0.41,0.49 -0.08,0 -0.14,0 -0.28,-0.11 -0.85,-0.31 -2.69,-1.02 -5.27,-1.02 -0.97,0 -2.83,0.08 -5.09,0.96 -0.35,0.17 -0.41,0.17 -0.45,0.17 -0.46,0 -0.46,-0.39 -0.46,-0.94 V 442 c 0,-0.59 0,-1.02 0.56,-1.02 0.32,0 0.35,0.07 0.71,0.49 1.5,1.92 3.62,2.2 4.84,2.2 2.08,0 3.03,-1.67 3.21,-1.95 0.62,-1.16 0.82,-2.47 0.82,-4.5 0,-1.05 0,-3.1 -1.04,-4.63 -0.86,-1.26 -2.36,-2.09 -4.07,-2.09 -2.26,0 -4.61,1.25 -5.48,3.55 1.33,-0.1 1.98,0.76 1.98,1.7 0,1.5 -1.28,1.78 -1.73,1.78 -0.06,0 -1.75,0 -1.75,-1.87 0,-3.14 2.86,-6.28 7.05,-6.28 4.45,0 8.36,3.31 8.36,7.7 0,3.94 -3,7.56 -7.32,7.56 -1.53,0 -3.34,-0.37 -4.87,-1.7 z"
                 inkscape:connector-curvature="0"
                 style="fill:#000000;stroke-width:0" /><path
                 id="path1142"
                 d="m 506.08,430.64 -0.01,-0.36 -0.01,-0.37 -0.03,-0.38 -0.04,-0.38 -0.03,-0.2 -0.04,-0.19 -0.04,-0.2 -0.04,-0.2 -0.05,-0.19 -0.06,-0.2 -0.06,-0.2 -0.07,-0.21 -0.07,-0.2 -0.09,-0.2 -0.09,-0.2 -0.09,-0.21 -0.11,-0.2 -0.11,-0.21 -0.13,-0.21 -0.13,-0.2 -0.14,-0.21 -0.15,-0.21 -0.17,-0.2 -0.17,-0.21 -0.18,-0.21 -0.19,-0.21 -0.21,-0.21 -0.21,-0.2 c -0.14,-0.15 -0.25,-0.25 -0.25,-0.43 0,-0.25 0.28,-0.48 0.48,-0.48 0.49,0 3.46,2.78 3.46,6.92 0,2.17 -0.85,3.8 -2.44,3.8 -1.16,0 -1.99,-0.91 -1.99,-1.99 0,-1.11 0.8,-2.01 2.02,-2.01 0.84,0 1.39,0.56 1.44,0.56 z"
                 inkscape:connector-curvature="0"
                 style="fill:#000000;stroke-width:0" /><path
                 id="path1144"
                 d="m 512.47,424.47 -0.01,-0.05 -0.01,-0.04 -0.01,-0.05 -0.01,-0.04 -0.01,-0.04 v -0.04 l -0.01,-0.03 -0.01,-0.04 -0.01,-0.03 v -0.03 l -0.01,-0.03 v -0.03 l -0.01,-0.03 v -0.02 -0.03 l -0.01,-0.02 v -0.02 -0.02 -0.02 l -0.01,-0.02 v -0.01 -0.02 -0.01 -0.01 -0.01 -0.01 -0.01 -0.01 0 -0.01 0 -0.01 c 0,-0.76 0.62,-1.11 1.17,-1.11 1.26,0 1.53,1.15 1.67,1.74 0.08,0.17 0.77,2.97 1.61,6.37 1.08,-0.71 2.47,-1 3.73,-1 2.99,0 4.94,2.44 5.02,2.5 0.66,-2.4 3.06,-2.5 3.58,-2.5 1.27,0 2.12,0.77 2.77,1.85 0.76,1.36 1.21,3.34 1.21,3.48 0,0.46 -0.45,0.46 -0.56,0.46 -0.48,0 -0.53,-0.14 -0.77,-1.08 -0.42,-1.67 -1.07,-3.74 -2.54,-3.74 -0.91,0 -1.16,0.77 -1.16,1.71 0,0.59 0.28,1.86 0.53,2.76 0.25,0.94 0.6,2.36 0.77,3.13 l 0.8,3.11 c 0.22,0.87 0.59,2.4 0.59,2.57 0,0.69 -0.55,1.11 -1.14,1.11 -0.39,0 -1.05,-0.17 -1.44,-0.82 -0.11,-0.22 -0.37,-1.33 -0.56,-2.04 l -0.72,-2.89 -1.08,-4.36 c -0.25,-0.86 -0.25,-0.93 -0.56,-1.39 -1.08,-1.53 -2.61,-2.89 -4.61,-2.89 -2.84,0 -2.84,2.47 -2.84,3.11 0,0.91 0.09,1.36 0.59,3.24 0.34,1.53 0.41,1.78 0.77,3.14 l 0.48,1.95 c 0.17,0.72 0.52,2.05 0.52,2.19 0,0.62 -0.49,1.11 -1.19,1.11 -1.25,0 -1.56,-1.22 -1.67,-1.63 z"
                 inkscape:connector-curvature="0"
                 style="fill:#000000;stroke-width:0" /><path
                 id="path1146"
                 d="m 482.66,394.28 -0.02,-0.11 -0.03,-0.11 -0.03,-0.09 -0.03,-0.1 -0.03,-0.09 -0.03,-0.08 -0.03,-0.08 -0.03,-0.07 -0.04,-0.07 -0.04,-0.07 -0.04,-0.06 -0.05,-0.06 -0.05,-0.05 -0.06,-0.05 -0.06,-0.05 -0.07,-0.04 -0.08,-0.04 -0.09,-0.04 -0.09,-0.03 -0.1,-0.03 -0.11,-0.03 -0.06,-0.01 -0.06,-0.01 -0.07,-0.01 -0.06,-0.01 -0.07,-0.01 -0.07,-0.01 -0.08,-0.01 H 481 l -0.08,-0.01 -0.08,-0.01 h -0.09 l -0.08,-0.01 h -0.1 l -0.09,-0.01 h -0.1 -0.1 l -0.11,-0.01 h -0.11 -0.11 -0.12 -0.12 -0.12 c -0.58,0 -1.04,0 -1.04,-0.74 0,-0.51 0.41,-0.51 1.04,-0.51 h 13.48 c 5.86,0 10.36,4 10.36,7.45 0,2.49 -2.27,4.61 -5.97,4.99 4.22,0.76 7.75,3.42 7.75,6.4 0,2.66 -2.69,4.96 -7.22,4.96 l -0.56,-1.25 c 3.56,0 4.36,-2.35 4.36,-3.66 0,-2.83 -3.17,-6.03 -7.84,-6.03 h -5.71 l -0.25,-0.99 h 7.39 c 3.27,0 4.53,-2.15 4.53,-4.17 0,-3.45 -3.53,-6.45 -7.73,-6.45 h -5.63 c -1.07,0 -1.1,0.05 -1.1,0.36 0,0.03 0,0.2 0.14,0.72 l 2.4,9.54 0.25,0.99 2.13,8.5 c 0.26,1.08 0.31,1.19 1.76,1.19 h 5.3 l 0.56,1.25 H 485.3 c -0.65,0 -1.1,0 -1.1,-0.77 0,-0.48 0.42,-0.48 1.1,-0.48 0.04,0 0.71,0 1.33,-0.08 0.74,-0.07 0.8,-0.14 0.8,-0.49 0,-0.06 0,-0.23 -0.14,-0.76 z"
                 inkscape:connector-curvature="0"
                 style="fill:#000000;stroke-width:0" /><path
                 id="path1148"
                 d="m 533.76,399.43 h 0.05 0.06 l 0.11,0.01 h 0.11 0.06 l 0.06,0.01 h 0.06 l 0.06,0.01 0.06,0.01 0.05,0.01 0.06,0.01 0.06,0.01 0.05,0.02 0.05,0.02 0.05,0.02 0.05,0.02 0.05,0.03 0.05,0.03 0.04,0.03 0.04,0.04 0.04,0.04 0.01,0.02 0.02,0.02 0.02,0.02 0.01,0.03 0.01,0.02 0.02,0.03 0.01,0.02 0.01,0.03 0.01,0.03 0.01,0.03 0.01,0.03 0.01,0.03 v 0.03 l 0.01,0.04 v 0.03 l 0.01,0.04 v 0.04 0.04 c 0,0.86 -0.8,0.86 -1.39,0.86 h -20.77 c -0.56,0 -1.39,0 -1.39,-0.83 0,-0.88 0.8,-0.88 1.39,-0.88 z"
                 inkscape:connector-curvature="0"
                 style="fill:#000000;stroke-width:0" /><path
                 id="path1150"
                 d="m 553.27,412.5 0.03,0.11 0.03,0.11 0.03,0.11 0.03,0.1 0.03,0.09 0.03,0.09 0.03,0.09 0.04,0.08 0.04,0.08 0.05,0.07 0.05,0.07 0.05,0.06 0.06,0.06 0.07,0.06 0.08,0.05 0.08,0.05 0.09,0.04 0.1,0.04 0.12,0.04 0.12,0.03 0.06,0.02 0.07,0.01 0.07,0.01 0.07,0.02 0.08,0.01 0.08,0.01 0.08,0.01 0.08,0.01 0.09,0.01 0.1,0.01 0.09,0.01 0.1,0.01 h 0.1 l 0.11,0.01 h 0.11 l 0.12,0.01 h 0.11 l 0.13,0.01 h 0.12 0.13 0.14 0.14 0.14 l 0.15,0.01 c 1.08,0 1.42,0 1.42,0.76 0,0.03 -0.03,0.49 -0.59,0.49 -0.8,0 -1.74,-0.07 -2.58,-0.11 -0.88,-0.04 -1.91,-0.04 -2.78,-0.04 -0.74,0 -1.67,0.04 -2.41,0.04 -0.73,0 -1.56,0.11 -2.26,0.11 -0.21,0 -0.74,0 -0.74,-0.77 0,-0.48 0.42,-0.48 1.13,-0.48 0.03,0 0.68,0 1.31,-0.08 0.73,-0.07 0.81,-0.14 0.81,-0.49 0,-0.06 0,-0.23 -0.14,-0.76 l -4.64,-18.5 c -0.31,-1.19 -0.39,-1.47 -3.06,-1.47 -0.6,0 -1.05,0 -1.05,-0.74 0,-0.51 0.42,-0.51 1.05,-0.51 h 17.51 c 0.88,0 0.91,0.03 1.19,0.7 0.36,0.94 2.97,7.69 2.97,7.97 0,0.11 -0.08,0.5 -0.59,0.5 -0.43,0 -0.49,-0.19 -0.71,-0.73 -1.31,-3.32 -2.86,-7.19 -9.23,-7.19 h -3.94 c -1.08,0 -1.11,0.05 -1.11,0.36 0,0.03 0,0.2 0.14,0.72 z"
                 inkscape:connector-curvature="0"
                 style="fill:#000000;stroke-width:0" /></g></g><g
             id="g1290"
             transform="matrix(10.146405,0,0,10.146405,-397.95719,-1071.4704)"
             style="stroke-width:0.22127582"><g
               word-spacing="normal"
               letter-spacing="normal"
               font-size-adjust="none"
               font-stretch="normal"
               font-weight="normal"
               font-variant="normal"
               font-style="normal"
               stroke-miterlimit="10.433"
               xml:space="preserve"
               transform="matrix(0.3012034,0,0,-0.3012034,-52.710595,181.82032)"
               id="g1288"
               style="font-style:normal;font-variant:normal;font-weight:normal;font-stretch:normal;letter-spacing:normal;word-spacing:normal;text-anchor:start;fill:none;fill-opacity:1;fill-rule:evenodd;stroke:#000000;stroke-width:0.025432;stroke-linecap:butt;stroke-linejoin:miter;stroke-miterlimit:10.43299961;stroke-dasharray:none;stroke-dashoffset:0;stroke-opacity:1"><path
                 id="path1272"
                 d="m 475.3,437.34 v 0.09 l -0.01,0.08 -0.01,0.09 -0.01,0.09 -0.02,0.08 -0.02,0.08 -0.03,0.09 -0.03,0.08 -0.03,0.07 -0.04,0.08 -0.04,0.08 -0.04,0.07 -0.05,0.07 -0.05,0.07 -0.06,0.07 -0.06,0.06 -0.06,0.06 -0.07,0.06 -0.07,0.05 -0.07,0.06 -0.08,0.04 -0.07,0.05 -0.09,0.04 -0.08,0.04 -0.09,0.03 -0.09,0.03 -0.1,0.03 -0.1,0.02 -0.1,0.01 -0.1,0.02 h -0.11 l -0.11,0.01 c -1.16,0 -2.64,-1.16 -2.64,-2.64 0,-1 0.69,-1.8 1.84,-1.8 1.35,0 2.69,1.3 2.69,2.64 z"
                 inkscape:connector-curvature="0"
                 style="fill:#000000;stroke-width:0" /><path
                 id="path1274"
                 d="m 465.29,403.71 -0.1,-0.35 -0.1,-0.35 -0.11,-0.34 -0.12,-0.33 -0.12,-0.33 -0.14,-0.32 -0.14,-0.31 -0.14,-0.3 -0.16,-0.3 -0.16,-0.29 -0.16,-0.28 -0.18,-0.26 -0.18,-0.26 -0.18,-0.25 -0.2,-0.24 -0.19,-0.23 -0.2,-0.22 -0.21,-0.2 -0.21,-0.19 -0.22,-0.19 -0.22,-0.16 -0.23,-0.16 -0.23,-0.14 -0.23,-0.13 -0.24,-0.12 -0.24,-0.1 -0.25,-0.08 -0.25,-0.08 -0.25,-0.05 -0.25,-0.04 -0.26,-0.03 -0.26,-0.01 c -0.3,0 -1.05,0 -1.95,0.46 1.5,0.36 2.25,1.64 2.25,2.64 0,0.79 -0.55,1.75 -1.89,1.75 -1.25,0 -2.69,-1.05 -2.69,-2.85 0,-2 1.98,-3.09 4.37,-3.09 3.49,0 8.13,2.64 9.38,7.58 l 4.58,18.23 c 0.25,1 0.25,1.69 0.25,1.85 0,2.84 -2.1,4.57 -4.58,4.57 -5.09,0 -7.92,-7.21 -7.92,-7.67 0,-0.5 0.48,-0.5 0.59,-0.5 0.45,0 0.5,0.07 0.89,1 1.25,3.05 3.55,6.08 6.28,6.08 0.71,0 1.6,-0.2 1.6,-2.28 0,-1.16 -0.16,-1.7 -0.35,-2.55 z"
                 inkscape:connector-curvature="0"
                 style="fill:#000000;stroke-width:0" /><path
                 id="path1276"
                 d="m 484.33,449.52 0.16,-0.05 0.16,-0.03 0.16,-0.04 0.15,-0.03 0.14,-0.03 0.15,-0.03 0.14,-0.03 0.13,-0.03 0.13,-0.02 0.13,-0.02 0.12,-0.02 0.12,-0.02 0.12,-0.01 0.11,-0.02 0.11,-0.01 0.11,-0.01 0.1,-0.01 0.1,-0.01 0.09,-0.01 h 0.09 l 0.09,-0.01 h 0.09 l 0.08,-0.01 h 0.08 0.07 0.07 l 0.07,-0.01 h 0.07 0.06 0.06 0.06 0.05 c 4.6,0 7.32,3.14 7.32,3.67 0,0.38 -0.24,0.49 -0.41,0.49 -0.08,0 -0.14,0 -0.28,-0.11 -0.85,-0.31 -2.69,-1.02 -5.27,-1.02 -0.97,0 -2.83,0.08 -5.09,0.96 -0.35,0.17 -0.41,0.17 -0.45,0.17 -0.46,0 -0.46,-0.39 -0.46,-0.94 V 442 c 0,-0.59 0,-1.02 0.56,-1.02 0.32,0 0.35,0.07 0.71,0.49 1.5,1.92 3.62,2.2 4.84,2.2 2.08,0 3.03,-1.67 3.21,-1.95 0.62,-1.16 0.82,-2.47 0.82,-4.5 0,-1.05 0,-3.1 -1.04,-4.63 -0.86,-1.26 -2.36,-2.09 -4.07,-2.09 -2.26,0 -4.61,1.25 -5.48,3.55 1.33,-0.1 1.98,0.76 1.98,1.7 0,1.5 -1.28,1.78 -1.73,1.78 -0.06,0 -1.75,0 -1.75,-1.87 0,-3.14 2.86,-6.28 7.05,-6.28 4.45,0 8.36,3.31 8.36,7.7 0,3.94 -3,7.56 -7.32,7.56 -1.53,0 -3.34,-0.37 -4.87,-1.7 z"
                 inkscape:connector-curvature="0"
                 style="fill:#000000;stroke-width:0" /><path
                 id="path1278"
                 d="m 506.08,430.64 -0.01,-0.36 -0.01,-0.37 -0.03,-0.38 -0.04,-0.38 -0.03,-0.2 -0.04,-0.19 -0.04,-0.2 -0.04,-0.2 -0.05,-0.19 -0.06,-0.2 -0.06,-0.2 -0.07,-0.21 -0.07,-0.2 -0.09,-0.2 -0.09,-0.2 -0.09,-0.21 -0.11,-0.2 -0.11,-0.21 -0.13,-0.21 -0.13,-0.2 -0.14,-0.21 -0.15,-0.21 -0.17,-0.2 -0.17,-0.21 -0.18,-0.21 -0.19,-0.21 -0.21,-0.21 -0.21,-0.2 c -0.14,-0.15 -0.25,-0.25 -0.25,-0.43 0,-0.25 0.28,-0.48 0.48,-0.48 0.49,0 3.46,2.78 3.46,6.92 0,2.17 -0.85,3.8 -2.44,3.8 -1.16,0 -1.99,-0.91 -1.99,-1.99 0,-1.11 0.8,-2.01 2.02,-2.01 0.84,0 1.39,0.56 1.44,0.56 z"
                 inkscape:connector-curvature="0"
                 style="fill:#000000;stroke-width:0" /><path
                 id="path1280"
                 d="m 512.47,424.47 -0.01,-0.05 -0.01,-0.04 -0.01,-0.05 -0.01,-0.04 -0.01,-0.04 v -0.04 l -0.01,-0.03 -0.01,-0.04 -0.01,-0.03 v -0.03 l -0.01,-0.03 v -0.03 l -0.01,-0.03 v -0.02 -0.03 l -0.01,-0.02 v -0.02 -0.02 -0.02 l -0.01,-0.02 v -0.01 -0.02 -0.01 -0.01 -0.01 -0.01 -0.01 -0.01 0 -0.01 0 -0.01 c 0,-0.76 0.62,-1.11 1.17,-1.11 1.26,0 1.53,1.15 1.67,1.74 0.08,0.17 0.77,2.97 1.61,6.37 1.08,-0.71 2.47,-1 3.73,-1 2.99,0 4.94,2.44 5.02,2.5 0.66,-2.4 3.06,-2.5 3.58,-2.5 1.27,0 2.12,0.77 2.77,1.85 0.76,1.36 1.21,3.34 1.21,3.48 0,0.46 -0.45,0.46 -0.56,0.46 -0.48,0 -0.53,-0.14 -0.77,-1.08 -0.42,-1.67 -1.07,-3.74 -2.54,-3.74 -0.91,0 -1.16,0.77 -1.16,1.71 0,0.59 0.28,1.86 0.53,2.76 0.25,0.94 0.6,2.36 0.77,3.13 l 0.8,3.11 c 0.22,0.87 0.59,2.4 0.59,2.57 0,0.69 -0.55,1.11 -1.14,1.11 -0.39,0 -1.05,-0.17 -1.44,-0.82 -0.11,-0.22 -0.37,-1.33 -0.56,-2.04 l -0.72,-2.89 -1.08,-4.36 c -0.25,-0.86 -0.25,-0.93 -0.56,-1.39 -1.08,-1.53 -2.61,-2.89 -4.61,-2.89 -2.84,0 -2.84,2.47 -2.84,3.11 0,0.91 0.09,1.36 0.59,3.24 0.34,1.53 0.41,1.78 0.77,3.14 l 0.48,1.95 c 0.17,0.72 0.52,2.05 0.52,2.19 0,0.62 -0.49,1.11 -1.19,1.11 -1.25,0 -1.56,-1.22 -1.67,-1.63 z"
                 inkscape:connector-curvature="0"
                 style="fill:#000000;stroke-width:0" /><path
                 id="path1282"
                 d="m 482.66,394.28 -0.02,-0.11 -0.03,-0.11 -0.03,-0.09 -0.03,-0.1 -0.03,-0.09 -0.03,-0.08 -0.03,-0.08 -0.03,-0.07 -0.04,-0.07 -0.04,-0.07 -0.04,-0.06 -0.05,-0.06 -0.05,-0.05 -0.06,-0.05 -0.06,-0.05 -0.07,-0.04 -0.08,-0.04 -0.09,-0.04 -0.09,-0.03 -0.1,-0.03 -0.11,-0.03 -0.06,-0.01 -0.06,-0.01 -0.07,-0.01 -0.06,-0.01 -0.07,-0.01 -0.07,-0.01 -0.08,-0.01 H 481 l -0.08,-0.01 -0.08,-0.01 h -0.09 l -0.08,-0.01 h -0.1 l -0.09,-0.01 h -0.1 -0.1 l -0.11,-0.01 h -0.11 -0.11 -0.12 -0.12 -0.12 c -0.58,0 -1.04,0 -1.04,-0.74 0,-0.51 0.41,-0.51 1.04,-0.51 h 13.48 c 5.86,0 10.36,4 10.36,7.45 0,2.49 -2.27,4.61 -5.97,4.99 4.22,0.76 7.75,3.42 7.75,6.4 0,2.66 -2.69,4.96 -7.22,4.96 l -0.56,-1.25 c 3.56,0 4.36,-2.35 4.36,-3.66 0,-2.83 -3.17,-6.03 -7.84,-6.03 h -5.71 l -0.25,-0.99 h 7.39 c 3.27,0 4.53,-2.15 4.53,-4.17 0,-3.45 -3.53,-6.45 -7.73,-6.45 h -5.63 c -1.07,0 -1.1,0.05 -1.1,0.36 0,0.03 0,0.2 0.14,0.72 l 2.4,9.54 0.25,0.99 2.13,8.5 c 0.26,1.08 0.31,1.19 1.76,1.19 h 5.3 l 0.56,1.25 H 485.3 c -0.65,0 -1.1,0 -1.1,-0.77 0,-0.48 0.42,-0.48 1.1,-0.48 0.04,0 0.71,0 1.33,-0.08 0.74,-0.07 0.8,-0.14 0.8,-0.49 0,-0.06 0,-0.23 -0.14,-0.76 z"
                 inkscape:connector-curvature="0"
                 style="fill:#000000;stroke-width:0" /><path
                 id="path1284"
                 d="m 533.76,399.43 h 0.05 0.06 l 0.11,0.01 h 0.11 0.06 l 0.06,0.01 h 0.06 l 0.06,0.01 0.06,0.01 0.05,0.01 0.06,0.01 0.06,0.01 0.05,0.02 0.05,0.02 0.05,0.02 0.05,0.02 0.05,0.03 0.05,0.03 0.04,0.03 0.04,0.04 0.04,0.04 0.01,0.02 0.02,0.02 0.02,0.02 0.01,0.03 0.01,0.02 0.02,0.03 0.01,0.02 0.01,0.03 0.01,0.03 0.01,0.03 0.01,0.03 0.01,0.03 v 0.03 l 0.01,0.04 v 0.03 l 0.01,0.04 v 0.04 0.04 c 0,0.86 -0.8,0.86 -1.39,0.86 h -20.77 c -0.56,0 -1.39,0 -1.39,-0.83 0,-0.88 0.8,-0.88 1.39,-0.88 z"
                 inkscape:connector-curvature="0"
                 style="fill:#000000;stroke-width:0" /><path
                 id="path1286"
                 d="m 553.27,412.5 0.03,0.11 0.03,0.11 0.03,0.11 0.03,0.1 0.03,0.09 0.03,0.09 0.03,0.09 0.04,0.08 0.04,0.08 0.05,0.07 0.05,0.07 0.05,0.06 0.06,0.06 0.07,0.06 0.08,0.05 0.08,0.05 0.09,0.04 0.1,0.04 0.12,0.04 0.12,0.03 0.06,0.02 0.07,0.01 0.07,0.01 0.07,0.02 0.08,0.01 0.08,0.01 0.08,0.01 0.08,0.01 0.09,0.01 0.1,0.01 0.09,0.01 0.1,0.01 h 0.1 l 0.11,0.01 h 0.11 l 0.12,0.01 h 0.11 l 0.13,0.01 h 0.12 0.13 0.14 0.14 0.14 l 0.15,0.01 c 1.08,0 1.42,0 1.42,0.76 0,0.03 -0.03,0.49 -0.59,0.49 -0.8,0 -1.74,-0.07 -2.58,-0.11 -0.88,-0.04 -1.91,-0.04 -2.78,-0.04 -0.74,0 -1.67,0.04 -2.41,0.04 -0.73,0 -1.56,0.11 -2.26,0.11 -0.21,0 -0.74,0 -0.74,-0.77 0,-0.48 0.42,-0.48 1.13,-0.48 0.03,0 0.68,0 1.31,-0.08 0.73,-0.07 0.81,-0.14 0.81,-0.49 0,-0.06 0,-0.23 -0.14,-0.76 l -4.64,-18.5 c -0.31,-1.19 -0.39,-1.47 -3.06,-1.47 -0.6,0 -1.05,0 -1.05,-0.74 0,-0.51 0.42,-0.51 1.05,-0.51 h 17.51 c 0.88,0 0.91,0.03 1.19,0.7 0.36,0.94 2.97,7.69 2.97,7.97 0,0.11 -0.08,0.5 -0.59,0.5 -0.43,0 -0.49,-0.19 -0.71,-0.73 -1.31,-3.32 -2.86,-7.19 -9.23,-7.19 h -3.94 c -1.08,0 -1.11,0.05 -1.11,0.36 0,0.03 0,0.2 0.14,0.72 z"
                 inkscape:connector-curvature="0"
                 style="fill:#000000;stroke-width:0" /></g></g><g
             id="g1419"
             transform="matrix(10.146405,0,0,10.146405,-397.95719,-1071.4704)"
             style="stroke-width:0.22127582"><g
               word-spacing="normal"
               letter-spacing="normal"
               font-size-adjust="none"
               font-stretch="normal"
               font-weight="normal"
               font-variant="normal"
               font-style="normal"
               stroke-miterlimit="10.433"
               xml:space="preserve"
               transform="matrix(0.3012034,0,0,-0.3012034,-52.710595,181.82032)"
               id="g1417"
               style="font-style:normal;font-variant:normal;font-weight:normal;font-stretch:normal;letter-spacing:normal;word-spacing:normal;text-anchor:start;fill:none;fill-opacity:1;fill-rule:evenodd;stroke:#000000;stroke-width:0.025432;stroke-linecap:butt;stroke-linejoin:miter;stroke-miterlimit:10.43299961;stroke-dasharray:none;stroke-dashoffset:0;stroke-opacity:1"><path
                 id="path1401"
                 d="m 475.3,437.34 v 0.09 l -0.01,0.08 -0.01,0.09 -0.01,0.09 -0.02,0.08 -0.02,0.08 -0.03,0.09 -0.03,0.08 -0.03,0.07 -0.04,0.08 -0.04,0.08 -0.04,0.07 -0.05,0.07 -0.05,0.07 -0.06,0.07 -0.06,0.06 -0.06,0.06 -0.07,0.06 -0.07,0.05 -0.07,0.06 -0.08,0.04 -0.07,0.05 -0.09,0.04 -0.08,0.04 -0.09,0.03 -0.09,0.03 -0.1,0.03 -0.1,0.02 -0.1,0.01 -0.1,0.02 h -0.11 l -0.11,0.01 c -1.16,0 -2.64,-1.16 -2.64,-2.64 0,-1 0.69,-1.8 1.84,-1.8 1.35,0 2.69,1.3 2.69,2.64 z"
                 inkscape:connector-curvature="0"
                 style="fill:#000000;stroke-width:0" /><path
                 id="path1403"
                 d="m 465.29,403.71 -0.1,-0.35 -0.1,-0.35 -0.11,-0.34 -0.12,-0.33 -0.12,-0.33 -0.14,-0.32 -0.14,-0.31 -0.14,-0.3 -0.16,-0.3 -0.16,-0.29 -0.16,-0.28 -0.18,-0.26 -0.18,-0.26 -0.18,-0.25 -0.2,-0.24 -0.19,-0.23 -0.2,-0.22 -0.21,-0.2 -0.21,-0.19 -0.22,-0.19 -0.22,-0.16 -0.23,-0.16 -0.23,-0.14 -0.23,-0.13 -0.24,-0.12 -0.24,-0.1 -0.25,-0.08 -0.25,-0.08 -0.25,-0.05 -0.25,-0.04 -0.26,-0.03 -0.26,-0.01 c -0.3,0 -1.05,0 -1.95,0.46 1.5,0.36 2.25,1.64 2.25,2.64 0,0.79 -0.55,1.75 -1.89,1.75 -1.25,0 -2.69,-1.05 -2.69,-2.85 0,-2 1.98,-3.09 4.37,-3.09 3.49,0 8.13,2.64 9.38,7.58 l 4.58,18.23 c 0.25,1 0.25,1.69 0.25,1.85 0,2.84 -2.1,4.57 -4.58,4.57 -5.09,0 -7.92,-7.21 -7.92,-7.67 0,-0.5 0.48,-0.5 0.59,-0.5 0.45,0 0.5,0.07 0.89,1 1.25,3.05 3.55,6.08 6.28,6.08 0.71,0 1.6,-0.2 1.6,-2.28 0,-1.16 -0.16,-1.7 -0.35,-2.55 z"
                 inkscape:connector-curvature="0"
                 style="fill:#000000;stroke-width:0" /><path
                 id="path1405"
                 d="m 484.33,449.52 0.16,-0.05 0.16,-0.03 0.16,-0.04 0.15,-0.03 0.14,-0.03 0.15,-0.03 0.14,-0.03 0.13,-0.03 0.13,-0.02 0.13,-0.02 0.12,-0.02 0.12,-0.02 0.12,-0.01 0.11,-0.02 0.11,-0.01 0.11,-0.01 0.1,-0.01 0.1,-0.01 0.09,-0.01 h 0.09 l 0.09,-0.01 h 0.09 l 0.08,-0.01 h 0.08 0.07 0.07 l 0.07,-0.01 h 0.07 0.06 0.06 0.06 0.05 c 4.6,0 7.32,3.14 7.32,3.67 0,0.38 -0.24,0.49 -0.41,0.49 -0.08,0 -0.14,0 -0.28,-0.11 -0.85,-0.31 -2.69,-1.02 -5.27,-1.02 -0.97,0 -2.83,0.08 -5.09,0.96 -0.35,0.17 -0.41,0.17 -0.45,0.17 -0.46,0 -0.46,-0.39 -0.46,-0.94 V 442 c 0,-0.59 0,-1.02 0.56,-1.02 0.32,0 0.35,0.07 0.71,0.49 1.5,1.92 3.62,2.2 4.84,2.2 2.08,0 3.03,-1.67 3.21,-1.95 0.62,-1.16 0.82,-2.47 0.82,-4.5 0,-1.05 0,-3.1 -1.04,-4.63 -0.86,-1.26 -2.36,-2.09 -4.07,-2.09 -2.26,0 -4.61,1.25 -5.48,3.55 1.33,-0.1 1.98,0.76 1.98,1.7 0,1.5 -1.28,1.78 -1.73,1.78 -0.06,0 -1.75,0 -1.75,-1.87 0,-3.14 2.86,-6.28 7.05,-6.28 4.45,0 8.36,3.31 8.36,7.7 0,3.94 -3,7.56 -7.32,7.56 -1.53,0 -3.34,-0.37 -4.87,-1.7 z"
                 inkscape:connector-curvature="0"
                 style="fill:#000000;stroke-width:0" /><path
                 id="path1407"
                 d="m 506.08,430.64 -0.01,-0.36 -0.01,-0.37 -0.03,-0.38 -0.04,-0.38 -0.03,-0.2 -0.04,-0.19 -0.04,-0.2 -0.04,-0.2 -0.05,-0.19 -0.06,-0.2 -0.06,-0.2 -0.07,-0.21 -0.07,-0.2 -0.09,-0.2 -0.09,-0.2 -0.09,-0.21 -0.11,-0.2 -0.11,-0.21 -0.13,-0.21 -0.13,-0.2 -0.14,-0.21 -0.15,-0.21 -0.17,-0.2 -0.17,-0.21 -0.18,-0.21 -0.19,-0.21 -0.21,-0.21 -0.21,-0.2 c -0.14,-0.15 -0.25,-0.25 -0.25,-0.43 0,-0.25 0.28,-0.48 0.48,-0.48 0.49,0 3.46,2.78 3.46,6.92 0,2.17 -0.85,3.8 -2.44,3.8 -1.16,0 -1.99,-0.91 -1.99,-1.99 0,-1.11 0.8,-2.01 2.02,-2.01 0.84,0 1.39,0.56 1.44,0.56 z"
                 inkscape:connector-curvature="0"
                 style="fill:#000000;stroke-width:0" /><path
                 id="path1409"
                 d="m 512.47,424.47 -0.01,-0.05 -0.01,-0.04 -0.01,-0.05 -0.01,-0.04 -0.01,-0.04 v -0.04 l -0.01,-0.03 -0.01,-0.04 -0.01,-0.03 v -0.03 l -0.01,-0.03 v -0.03 l -0.01,-0.03 v -0.02 -0.03 l -0.01,-0.02 v -0.02 -0.02 -0.02 l -0.01,-0.02 v -0.01 -0.02 -0.01 -0.01 -0.01 -0.01 -0.01 -0.01 0 -0.01 0 -0.01 c 0,-0.76 0.62,-1.11 1.17,-1.11 1.26,0 1.53,1.15 1.67,1.74 0.08,0.17 0.77,2.97 1.61,6.37 1.08,-0.71 2.47,-1 3.73,-1 2.99,0 4.94,2.44 5.02,2.5 0.66,-2.4 3.06,-2.5 3.58,-2.5 1.27,0 2.12,0.77 2.77,1.85 0.76,1.36 1.21,3.34 1.21,3.48 0,0.46 -0.45,0.46 -0.56,0.46 -0.48,0 -0.53,-0.14 -0.77,-1.08 -0.42,-1.67 -1.07,-3.74 -2.54,-3.74 -0.91,0 -1.16,0.77 -1.16,1.71 0,0.59 0.28,1.86 0.53,2.76 0.25,0.94 0.6,2.36 0.77,3.13 l 0.8,3.11 c 0.22,0.87 0.59,2.4 0.59,2.57 0,0.69 -0.55,1.11 -1.14,1.11 -0.39,0 -1.05,-0.17 -1.44,-0.82 -0.11,-0.22 -0.37,-1.33 -0.56,-2.04 l -0.72,-2.89 -1.08,-4.36 c -0.25,-0.86 -0.25,-0.93 -0.56,-1.39 -1.08,-1.53 -2.61,-2.89 -4.61,-2.89 -2.84,0 -2.84,2.47 -2.84,3.11 0,0.91 0.09,1.36 0.59,3.24 0.34,1.53 0.41,1.78 0.77,3.14 l 0.48,1.95 c 0.17,0.72 0.52,2.05 0.52,2.19 0,0.62 -0.49,1.11 -1.19,1.11 -1.25,0 -1.56,-1.22 -1.67,-1.63 z"
                 inkscape:connector-curvature="0"
                 style="fill:#000000;stroke-width:0" /><path
                 id="path1411"
                 d="m 482.66,394.28 -0.02,-0.11 -0.03,-0.11 -0.03,-0.09 -0.03,-0.1 -0.03,-0.09 -0.03,-0.08 -0.03,-0.08 -0.03,-0.07 -0.04,-0.07 -0.04,-0.07 -0.04,-0.06 -0.05,-0.06 -0.05,-0.05 -0.06,-0.05 -0.06,-0.05 -0.07,-0.04 -0.08,-0.04 -0.09,-0.04 -0.09,-0.03 -0.1,-0.03 -0.11,-0.03 -0.06,-0.01 -0.06,-0.01 -0.07,-0.01 -0.06,-0.01 -0.07,-0.01 -0.07,-0.01 -0.08,-0.01 H 481 l -0.08,-0.01 -0.08,-0.01 h -0.09 l -0.08,-0.01 h -0.1 l -0.09,-0.01 h -0.1 -0.1 l -0.11,-0.01 h -0.11 -0.11 -0.12 -0.12 -0.12 c -0.58,0 -1.04,0 -1.04,-0.74 0,-0.51 0.41,-0.51 1.04,-0.51 h 13.48 c 5.86,0 10.36,4 10.36,7.45 0,2.49 -2.27,4.61 -5.97,4.99 4.22,0.76 7.75,3.42 7.75,6.4 0,2.66 -2.69,4.96 -7.22,4.96 l -0.56,-1.25 c 3.56,0 4.36,-2.35 4.36,-3.66 0,-2.83 -3.17,-6.03 -7.84,-6.03 h -5.71 l -0.25,-0.99 h 7.39 c 3.27,0 4.53,-2.15 4.53,-4.17 0,-3.45 -3.53,-6.45 -7.73,-6.45 h -5.63 c -1.07,0 -1.1,0.05 -1.1,0.36 0,0.03 0,0.2 0.14,0.72 l 2.4,9.54 0.25,0.99 2.13,8.5 c 0.26,1.08 0.31,1.19 1.76,1.19 h 5.3 l 0.56,1.25 H 485.3 c -0.65,0 -1.1,0 -1.1,-0.77 0,-0.48 0.42,-0.48 1.1,-0.48 0.04,0 0.71,0 1.33,-0.08 0.74,-0.07 0.8,-0.14 0.8,-0.49 0,-0.06 0,-0.23 -0.14,-0.76 z"
                 inkscape:connector-curvature="0"
                 style="fill:#000000;stroke-width:0" /><path
                 id="path1413"
                 d="m 533.76,399.43 h 0.05 0.06 l 0.11,0.01 h 0.11 0.06 l 0.06,0.01 h 0.06 l 0.06,0.01 0.06,0.01 0.05,0.01 0.06,0.01 0.06,0.01 0.05,0.02 0.05,0.02 0.05,0.02 0.05,0.02 0.05,0.03 0.05,0.03 0.04,0.03 0.04,0.04 0.04,0.04 0.01,0.02 0.02,0.02 0.02,0.02 0.01,0.03 0.01,0.02 0.02,0.03 0.01,0.02 0.01,0.03 0.01,0.03 0.01,0.03 0.01,0.03 0.01,0.03 v 0.03 l 0.01,0.04 v 0.03 l 0.01,0.04 v 0.04 0.04 c 0,0.86 -0.8,0.86 -1.39,0.86 h -20.77 c -0.56,0 -1.39,0 -1.39,-0.83 0,-0.88 0.8,-0.88 1.39,-0.88 z"
                 inkscape:connector-curvature="0"
                 style="fill:#000000;stroke-width:0" /><path
                 id="path1415"
                 d="m 553.27,412.5 0.03,0.11 0.03,0.11 0.03,0.11 0.03,0.1 0.03,0.09 0.03,0.09 0.03,0.09 0.04,0.08 0.04,0.08 0.05,0.07 0.05,0.07 0.05,0.06 0.06,0.06 0.07,0.06 0.08,0.05 0.08,0.05 0.09,0.04 0.1,0.04 0.12,0.04 0.12,0.03 0.06,0.02 0.07,0.01 0.07,0.01 0.07,0.02 0.08,0.01 0.08,0.01 0.08,0.01 0.08,0.01 0.09,0.01 0.1,0.01 0.09,0.01 0.1,0.01 h 0.1 l 0.11,0.01 h 0.11 l 0.12,0.01 h 0.11 l 0.13,0.01 h 0.12 0.13 0.14 0.14 0.14 l 0.15,0.01 c 1.08,0 1.42,0 1.42,0.76 0,0.03 -0.03,0.49 -0.59,0.49 -0.8,0 -1.74,-0.07 -2.58,-0.11 -0.88,-0.04 -1.91,-0.04 -2.78,-0.04 -0.74,0 -1.67,0.04 -2.41,0.04 -0.73,0 -1.56,0.11 -2.26,0.11 -0.21,0 -0.74,0 -0.74,-0.77 0,-0.48 0.42,-0.48 1.13,-0.48 0.03,0 0.68,0 1.31,-0.08 0.73,-0.07 0.81,-0.14 0.81,-0.49 0,-0.06 0,-0.23 -0.14,-0.76 l -4.64,-18.5 c -0.31,-1.19 -0.39,-1.47 -3.06,-1.47 -0.6,0 -1.05,0 -1.05,-0.74 0,-0.51 0.42,-0.51 1.05,-0.51 h 17.51 c 0.88,0 0.91,0.03 1.19,0.7 0.36,0.94 2.97,7.69 2.97,7.97 0,0.11 -0.08,0.5 -0.59,0.5 -0.43,0 -0.49,-0.19 -0.71,-0.73 -1.31,-3.32 -2.86,-7.19 -9.23,-7.19 h -3.94 c -1.08,0 -1.11,0.05 -1.11,0.36 0,0.03 0,0.2 0.14,0.72 z"
                 inkscape:connector-curvature="0"
                 style="fill:#000000;stroke-width:0" /></g></g></g></g></g><g
       style="stroke-width:2.24515414"
       transform="matrix(0.44540372,0,0,0.44540372,54.108037,39.563433)"
       id="g5754"><g
         style="font-style:normal;font-variant:normal;font-weight:normal;font-stretch:normal;letter-spacing:normal;word-spacing:normal;text-anchor:start;fill:none;fill-opacity:1;fill-rule:evenodd;stroke:#000000;stroke-width:4.31045675;stroke-linecap:butt;stroke-linejoin:miter;stroke-miterlimit:10.43299961;stroke-dasharray:none;stroke-dashoffset:0;stroke-opacity:1"
         id="g5752"
         transform="matrix(0.3012034,0,0,-0.3012034,-47.773349,291.74089)"
         xml:space="preserve"
         stroke-miterlimit="10.433"
         font-style="normal"
         font-variant="normal"
         font-weight="normal"
         font-stretch="normal"
         font-size-adjust="none"
         letter-spacing="normal"
         word-spacing="normal"><path
           style="fill:#000000;stroke-width:0"
           inkscape:connector-curvature="0"
           d="m 475.3,437.34 v 0.09 l -0.01,0.08 -0.01,0.09 -0.01,0.09 -0.02,0.08 -0.02,0.08 -0.03,0.09 -0.03,0.08 -0.03,0.07 -0.04,0.08 -0.04,0.08 -0.04,0.07 -0.05,0.07 -0.05,0.07 -0.06,0.07 -0.06,0.06 -0.06,0.06 -0.07,0.06 -0.07,0.05 -0.07,0.06 -0.08,0.04 -0.07,0.05 -0.09,0.04 -0.08,0.04 -0.09,0.03 -0.09,0.03 -0.1,0.03 -0.1,0.02 -0.1,0.01 -0.1,0.02 h -0.11 l -0.11,0.01 c -1.16,0 -2.64,-1.16 -2.64,-2.64 0,-1 0.69,-1.8 1.84,-1.8 1.35,0 2.69,1.3 2.69,2.64 z"
           id="path5740" /><path
           style="fill:#000000;stroke-width:0"
           inkscape:connector-curvature="0"
           d="m 465.29,403.71 -0.1,-0.35 -0.1,-0.35 -0.11,-0.34 -0.12,-0.33 -0.12,-0.33 -0.14,-0.32 -0.14,-0.31 -0.14,-0.3 -0.16,-0.3 -0.16,-0.29 -0.16,-0.28 -0.18,-0.26 -0.18,-0.26 -0.18,-0.25 -0.2,-0.24 -0.19,-0.23 -0.2,-0.22 -0.21,-0.2 -0.21,-0.19 -0.22,-0.19 -0.22,-0.16 -0.23,-0.16 -0.23,-0.14 -0.23,-0.13 -0.24,-0.12 -0.24,-0.1 -0.25,-0.08 -0.25,-0.08 -0.25,-0.05 -0.25,-0.04 -0.26,-0.03 -0.26,-0.01 c -0.3,0 -1.05,0 -1.95,0.46 1.5,0.36 2.25,1.64 2.25,2.64 0,0.79 -0.55,1.75 -1.89,1.75 -1.25,0 -2.69,-1.05 -2.69,-2.85 0,-2 1.98,-3.09 4.37,-3.09 3.49,0 8.13,2.64 9.38,7.58 l 4.58,18.23 c 0.25,1 0.25,1.69 0.25,1.85 0,2.84 -2.1,4.57 -4.58,4.57 -5.09,0 -7.92,-7.21 -7.92,-7.67 0,-0.5 0.48,-0.5 0.59,-0.5 0.45,0 0.5,0.07 0.89,1 1.25,3.05 3.55,6.08 6.28,6.08 0.71,0 1.6,-0.2 1.6,-2.28 0,-1.16 -0.16,-1.7 -0.35,-2.55 z"
           id="path5742" /><path
           style="fill:#000000;stroke-width:0"
           inkscape:connector-curvature="0"
           d="m 480.8,424.47 -0.01,-0.05 -0.02,-0.04 v -0.05 l -0.01,-0.04 -0.01,-0.04 -0.01,-0.04 -0.01,-0.03 -0.01,-0.04 v -0.03 l -0.01,-0.03 v -0.03 l -0.01,-0.03 v -0.03 l -0.01,-0.02 v -0.03 -0.02 l -0.01,-0.02 v -0.02 -0.02 -0.02 -0.01 -0.02 l -0.01,-0.01 v -0.01 -0.01 -0.01 -0.01 -0.01 0 -0.01 0 -0.01 c 0,-0.76 0.63,-1.11 1.17,-1.11 1.27,0 1.54,1.05 1.78,2.16 0.49,1.81 1.47,5.78 1.82,7.11 0.31,-0.51 1.42,-2.16 3.83,-2.16 l -0.04,0.97 c -2.57,0 -3.34,2.58 -3.34,3.03 0,0.08 0.2,0.85 0.31,1.25 1.05,4.3 1.25,5.1 2.27,6.63 1.25,1.84 3,2.86 4.39,2.86 1.42,0 2.78,-1.02 2.78,-3.52 0,-1.61 -0.91,-5.47 -1.98,-7.22 -1.6,-2.46 -3.35,-3.03 -4.43,-3.03 v 0 l 0.04,-0.97 c 4.46,0 9.2,4.74 9.2,9.83 0,3.69 -2.47,5.88 -5.55,5.88 -3.4,0 -7.62,-2.99 -8.84,-7.91 z"
           id="path5744" /><path
           style="fill:#000000;stroke-width:0"
           inkscape:connector-curvature="0"
           d="m 482.66,394.28 -0.02,-0.11 -0.03,-0.11 -0.03,-0.09 -0.03,-0.1 -0.03,-0.09 -0.03,-0.08 -0.03,-0.08 -0.03,-0.07 -0.04,-0.07 -0.04,-0.07 -0.04,-0.06 -0.05,-0.06 -0.05,-0.05 -0.06,-0.05 -0.06,-0.05 -0.07,-0.04 -0.08,-0.04 -0.09,-0.04 -0.09,-0.03 -0.1,-0.03 -0.11,-0.03 -0.06,-0.01 -0.06,-0.01 -0.07,-0.01 -0.06,-0.01 -0.07,-0.01 -0.07,-0.01 -0.08,-0.01 H 481 l -0.08,-0.01 -0.08,-0.01 h -0.09 l -0.08,-0.01 h -0.1 l -0.09,-0.01 h -0.1 -0.1 l -0.11,-0.01 h -0.11 -0.11 -0.12 -0.12 -0.12 c -0.58,0 -1.04,0 -1.04,-0.74 0,-0.51 0.41,-0.51 1.04,-0.51 h 13.48 c 5.86,0 10.36,4 10.36,7.45 0,2.49 -2.27,4.61 -5.97,4.99 4.22,0.76 7.75,3.42 7.75,6.4 0,2.66 -2.69,4.96 -7.22,4.96 l -0.56,-1.25 c 3.56,0 4.36,-2.35 4.36,-3.66 0,-2.83 -3.17,-6.03 -7.84,-6.03 h -5.71 l -0.25,-0.99 h 7.39 c 3.27,0 4.53,-2.15 4.53,-4.17 0,-3.45 -3.53,-6.45 -7.73,-6.45 h -5.63 c -1.07,0 -1.1,0.05 -1.1,0.36 0,0.03 0,0.2 0.14,0.72 l 2.4,9.54 0.25,0.99 2.13,8.5 c 0.26,1.08 0.31,1.19 1.76,1.19 h 5.3 l 0.56,1.25 H 485.3 c -0.65,0 -1.1,0 -1.1,-0.77 0,-0.48 0.42,-0.48 1.1,-0.48 0.04,0 0.71,0 1.33,-0.08 0.74,-0.07 0.8,-0.14 0.8,-0.49 0,-0.06 0,-0.23 -0.14,-0.76 z"
           id="path5746" /><path
           style="fill:#000000;stroke-width:0"
           inkscape:connector-curvature="0"
           d="m 533.76,399.43 h 0.05 0.06 l 0.11,0.01 h 0.11 0.06 l 0.06,0.01 h 0.06 l 0.06,0.01 0.06,0.01 0.05,0.01 0.06,0.01 0.06,0.01 0.05,0.02 0.05,0.02 0.05,0.02 0.05,0.02 0.05,0.03 0.05,0.03 0.04,0.03 0.04,0.04 0.04,0.04 0.01,0.02 0.02,0.02 0.02,0.02 0.01,0.03 0.01,0.02 0.02,0.03 0.01,0.02 0.01,0.03 0.01,0.03 0.01,0.03 0.01,0.03 0.01,0.03 v 0.03 l 0.01,0.04 v 0.03 l 0.01,0.04 v 0.04 0.04 c 0,0.86 -0.8,0.86 -1.39,0.86 h -20.77 c -0.56,0 -1.39,0 -1.39,-0.83 0,-0.88 0.8,-0.88 1.39,-0.88 z"
           id="path5748" /><path
           style="fill:#000000;stroke-width:0"
           inkscape:connector-curvature="0"
           d="m 553.27,412.5 0.03,0.11 0.03,0.11 0.03,0.11 0.03,0.1 0.03,0.09 0.03,0.09 0.03,0.09 0.04,0.08 0.04,0.08 0.05,0.07 0.05,0.07 0.05,0.06 0.06,0.06 0.07,0.06 0.08,0.05 0.08,0.05 0.09,0.04 0.1,0.04 0.12,0.04 0.12,0.03 0.06,0.02 0.07,0.01 0.07,0.01 0.07,0.02 0.08,0.01 0.08,0.01 0.08,0.01 0.08,0.01 0.09,0.01 0.1,0.01 0.09,0.01 0.1,0.01 h 0.1 l 0.11,0.01 h 0.11 l 0.12,0.01 h 0.11 l 0.13,0.01 h 0.12 0.13 0.14 0.14 0.14 l 0.15,0.01 c 1.08,0 1.42,0 1.42,0.76 0,0.03 -0.03,0.49 -0.59,0.49 -0.8,0 -1.74,-0.07 -2.58,-0.11 -0.88,-0.04 -1.91,-0.04 -2.78,-0.04 -0.74,0 -1.67,0.04 -2.41,0.04 -0.73,0 -1.56,0.11 -2.26,0.11 -0.21,0 -0.74,0 -0.74,-0.77 0,-0.48 0.42,-0.48 1.13,-0.48 0.03,0 0.68,0 1.31,-0.08 0.73,-0.07 0.81,-0.14 0.81,-0.49 0,-0.06 0,-0.23 -0.14,-0.76 l -4.64,-18.5 c -0.31,-1.19 -0.39,-1.47 -3.06,-1.47 -0.6,0 -1.05,0 -1.05,-0.74 0,-0.51 0.42,-0.51 1.05,-0.51 h 17.51 c 0.88,0 0.91,0.03 1.19,0.7 0.36,0.94 2.97,7.69 2.97,7.97 0,0.11 -0.08,0.5 -0.59,0.5 -0.43,0 -0.49,-0.19 -0.71,-0.73 -1.31,-3.32 -2.86,-7.19 -9.23,-7.19 h -3.94 c -1.08,0 -1.11,0.05 -1.11,0.36 0,0.03 0,0.2 0.14,0.72 z"
           id="path5750" /></g></g><g
       style="stroke-width:2.24515414"
       transform="matrix(0.44540372,0,0,0.44540372,-31.203358,77.716983)"
       id="g5848"><g
         style="font-style:normal;font-variant:normal;font-weight:normal;font-stretch:normal;letter-spacing:normal;word-spacing:normal;text-anchor:start;fill:none;fill-opacity:1;fill-rule:evenodd;stroke:#000000;stroke-width:4.31045675;stroke-linecap:butt;stroke-linejoin:miter;stroke-miterlimit:10.43299961;stroke-dasharray:none;stroke-dashoffset:0;stroke-opacity:1"
         id="g5846"
         transform="matrix(0.3012034,0,0,-0.3012034,99.405222,205.75463)"
         xml:space="preserve"
         stroke-miterlimit="10.433"
         font-style="normal"
         font-variant="normal"
         font-weight="normal"
         font-stretch="normal"
         font-size-adjust="none"
         letter-spacing="normal"
         word-spacing="normal"><path
           style="fill:#000000;stroke-width:0"
           inkscape:connector-curvature="0"
           d="m 475.3,437.34 v 0.09 l -0.01,0.08 -0.01,0.09 -0.01,0.09 -0.02,0.08 -0.02,0.08 -0.03,0.09 -0.03,0.08 -0.03,0.07 -0.04,0.08 -0.04,0.08 -0.04,0.07 -0.05,0.07 -0.05,0.07 -0.06,0.07 -0.06,0.06 -0.06,0.06 -0.07,0.06 -0.07,0.05 -0.07,0.06 -0.08,0.04 -0.07,0.05 -0.09,0.04 -0.08,0.04 -0.09,0.03 -0.09,0.03 -0.1,0.03 -0.1,0.02 -0.1,0.01 -0.1,0.02 h -0.11 l -0.11,0.01 c -1.16,0 -2.64,-1.16 -2.64,-2.64 0,-1 0.69,-1.8 1.84,-1.8 1.35,0 2.69,1.3 2.69,2.64 z"
           id="path5834" /><path
           style="fill:#000000;stroke-width:0"
           inkscape:connector-curvature="0"
           d="m 465.29,403.71 -0.1,-0.35 -0.1,-0.35 -0.11,-0.34 -0.12,-0.33 -0.12,-0.33 -0.14,-0.32 -0.14,-0.31 -0.14,-0.3 -0.16,-0.3 -0.16,-0.29 -0.16,-0.28 -0.18,-0.26 -0.18,-0.26 -0.18,-0.25 -0.2,-0.24 -0.19,-0.23 -0.2,-0.22 -0.21,-0.2 -0.21,-0.19 -0.22,-0.19 -0.22,-0.16 -0.23,-0.16 -0.23,-0.14 -0.23,-0.13 -0.24,-0.12 -0.24,-0.1 -0.25,-0.08 -0.25,-0.08 -0.25,-0.05 -0.25,-0.04 -0.26,-0.03 -0.26,-0.01 c -0.3,0 -1.05,0 -1.95,0.46 1.5,0.36 2.25,1.64 2.25,2.64 0,0.79 -0.55,1.75 -1.89,1.75 -1.25,0 -2.69,-1.05 -2.69,-2.85 0,-2 1.98,-3.09 4.37,-3.09 3.49,0 8.13,2.64 9.38,7.58 l 4.58,18.23 c 0.25,1 0.25,1.69 0.25,1.85 0,2.84 -2.1,4.57 -4.58,4.57 -5.09,0 -7.92,-7.21 -7.92,-7.67 0,-0.5 0.48,-0.5 0.59,-0.5 0.45,0 0.5,0.07 0.89,1 1.25,3.05 3.55,6.08 6.28,6.08 0.71,0 1.6,-0.2 1.6,-2.28 0,-1.16 -0.16,-1.7 -0.35,-2.55 z"
           id="path5836" /><path
           style="fill:#000000;stroke-width:0"
           inkscape:connector-curvature="0"
           d="m 487.67,438.56 0.01,0.03 v 0.02 l 0.01,0.03 v 0.03 l 0.01,0.04 0.01,0.03 v 0.03 0.03 l 0.01,0.04 v 0.03 l 0.01,0.04 v 0.03 0.03 0.04 0.03 0.03 c 0,0.04 0,0.49 -0.54,0.49 -0.05,0 -2.03,-0.17 -2.27,-0.17 -0.67,-0.07 -1.3,-0.1 -1.95,-0.18 -0.56,-0.03 -0.99,-0.06 -0.99,-0.79 0,-0.49 0.49,-0.49 0.91,-0.49 1.67,0 1.67,-0.22 1.67,-0.53 0,-0.2 -0.17,-0.9 -0.31,-1.36 l -1.73,-7.03 c -0.88,-3.48 -1.05,-4.19 -1.05,-4.33 0,-0.48 0.51,-0.48 0.65,-0.48 h 0.57 c 3.09,0.48 7.53,2.12 11.25,5.44 4.73,4.22 5.44,8.75 5.44,8.81 0,0.62 -0.49,1.11 -1.19,1.11 -1.22,0 -1.46,-0.97 -1.78,-1.94 -1.39,-4.95 -6.07,-10.28 -11.99,-12.03 z"
           id="path5838" /><path
           style="fill:#000000;stroke-width:0"
           inkscape:connector-curvature="0"
           d="m 482.66,395.12 -0.02,-0.11 -0.03,-0.11 -0.03,-0.09 -0.03,-0.1 -0.03,-0.09 -0.03,-0.08 -0.03,-0.08 -0.03,-0.07 -0.04,-0.07 -0.04,-0.07 -0.04,-0.06 -0.05,-0.06 -0.05,-0.05 -0.06,-0.05 -0.06,-0.05 -0.07,-0.04 -0.08,-0.04 -0.09,-0.04 -0.09,-0.03 -0.1,-0.03 -0.11,-0.03 -0.06,-0.01 -0.06,-0.01 -0.07,-0.01 -0.06,-0.01 -0.07,-0.01 -0.07,-0.01 -0.08,-0.01 H 481 l -0.08,-0.01 -0.08,-0.01 h -0.09 l -0.08,-0.01 h -0.1 l -0.09,-0.01 h -0.1 -0.1 l -0.11,-0.01 h -0.11 -0.11 -0.12 -0.12 -0.12 c -0.58,0 -1.04,0 -1.04,-0.74 0,-0.51 0.41,-0.51 1.04,-0.51 h 13.48 c 5.86,0 10.36,4 10.36,7.45 0,2.49 -2.27,4.61 -5.97,4.99 4.22,0.76 7.75,3.42 7.75,6.4 0,2.66 -2.69,4.96 -7.22,4.96 l -0.56,-1.25 c 3.56,0 4.36,-2.35 4.36,-3.66 0,-2.83 -3.17,-6.03 -7.84,-6.03 h -5.71 l -0.25,-0.99 h 7.39 c 3.27,0 4.53,-2.15 4.53,-4.17 0,-3.45 -3.53,-6.45 -7.73,-6.45 h -5.63 c -1.07,0 -1.1,0.05 -1.1,0.36 0,0.03 0,0.2 0.14,0.72 l 2.4,9.54 0.25,0.99 2.13,8.5 c 0.26,1.08 0.31,1.19 1.76,1.19 h 5.3 l 0.56,1.25 H 485.3 c -0.65,0 -1.1,0 -1.1,-0.77 0,-0.48 0.42,-0.48 1.1,-0.48 0.04,0 0.71,0 1.33,-0.08 0.74,-0.07 0.8,-0.14 0.8,-0.49 0,-0.06 0,-0.23 -0.14,-0.76 z"
           id="path5840" /><path
           style="fill:#000000;stroke-width:0"
           inkscape:connector-curvature="0"
           d="m 533.76,400.27 h 0.05 0.06 0.11 l 0.11,0.01 h 0.06 l 0.06,0.01 h 0.06 l 0.06,0.01 0.06,0.01 0.05,0.01 0.06,0.01 0.06,0.01 0.05,0.02 0.05,0.02 0.05,0.02 0.05,0.02 0.05,0.03 0.05,0.03 0.04,0.03 0.04,0.04 0.04,0.04 0.01,0.02 0.02,0.02 0.02,0.02 0.01,0.03 0.01,0.02 0.02,0.03 0.01,0.02 0.01,0.03 0.01,0.03 0.01,0.03 0.01,0.03 0.01,0.03 v 0.03 l 0.01,0.04 V 401 l 0.01,0.04 v 0.04 0.04 c 0,0.86 -0.8,0.86 -1.39,0.86 h -20.77 c -0.56,0 -1.39,0 -1.39,-0.83 0,-0.88 0.8,-0.88 1.39,-0.88 z"
           id="path5842" /><path
           style="fill:#000000;stroke-width:0"
           inkscape:connector-curvature="0"
           d="m 553.27,413.34 0.03,0.11 0.03,0.11 0.03,0.11 0.03,0.1 0.03,0.09 0.03,0.09 0.03,0.09 0.04,0.08 0.04,0.08 0.05,0.07 0.05,0.07 0.05,0.06 0.06,0.06 0.07,0.06 0.08,0.05 0.08,0.05 0.09,0.04 0.1,0.04 0.12,0.04 0.12,0.03 0.06,0.02 0.07,0.01 0.07,0.01 0.07,0.02 0.08,0.01 0.08,0.01 0.08,0.01 0.08,0.01 0.09,0.01 0.1,0.01 0.09,0.01 0.1,0.01 h 0.1 l 0.11,0.01 h 0.11 l 0.12,0.01 h 0.11 l 0.13,0.01 h 0.12 0.13 0.14 0.14 0.14 l 0.15,0.01 c 1.08,0 1.42,0 1.42,0.76 0,0.03 -0.03,0.49 -0.59,0.49 -0.8,0 -1.74,-0.07 -2.58,-0.11 -0.88,-0.04 -1.91,-0.04 -2.78,-0.04 -0.74,0 -1.67,0.04 -2.41,0.04 -0.73,0 -1.56,0.11 -2.26,0.11 -0.21,0 -0.74,0 -0.74,-0.77 0,-0.48 0.42,-0.48 1.13,-0.48 0.03,0 0.68,0 1.31,-0.08 0.73,-0.07 0.81,-0.14 0.81,-0.49 0,-0.06 0,-0.23 -0.14,-0.76 l -4.64,-18.5 c -0.31,-1.19 -0.39,-1.47 -3.06,-1.47 -0.6,0 -1.05,0 -1.05,-0.74 0,-0.51 0.42,-0.51 1.05,-0.51 h 17.51 c 0.88,0 0.91,0.03 1.19,0.7 0.36,0.94 2.97,7.69 2.97,7.97 0,0.11 -0.08,0.5 -0.59,0.5 -0.43,0 -0.49,-0.19 -0.71,-0.73 -1.31,-3.32 -2.86,-7.19 -9.23,-7.19 h -3.94 c -1.08,0 -1.11,0.05 -1.11,0.36 0,0.03 0,0.2 0.14,0.72 z"
           id="path5844" /></g></g></g></svg>