<?xml version="1.0" encoding="UTF-8" standalone="no"?>
<!-- Created with Inkscape (http://www.inkscape.org/) -->

<svg
   xmlns:dc="http://purl.org/dc/elements/1.1/"
   xmlns:cc="http://creativecommons.org/ns#"
   xmlns:rdf="http://www.w3.org/1999/02/22-rdf-syntax-ns#"
   xmlns:svg="http://www.w3.org/2000/svg"
   xmlns="http://www.w3.org/2000/svg"
   xmlns:sodipodi="http://sodipodi.sourceforge.net/DTD/sodipodi-0.dtd"
   xmlns:inkscape="http://www.inkscape.org/namespaces/inkscape"
   version="1.1"
   id="svg834"
   xml:space="preserve"
   width="242.79868"
   height="211.28799"
   viewBox="0 0 242.79868 211.28799"
   sodipodi:docname="trianom.svg"
   inkscape:export-filename="/home/jose/Documents/Maestria/thesis/chapters/figures/triangularanomaly.pdf.png"
   inkscape:export-xdpi="96"
   inkscape:export-ydpi="96"
   inkscape:version="0.92.5 (2060ec1f9f, 2020-04-08)"><metadata
     id="metadata840"><rdf:RDF><cc:Work
         rdf:about=""><dc:format>image/svg+xml</dc:format><dc:type
           rdf:resource="http://purl.org/dc/dcmitype/StillImage" /><dc:title></dc:title></cc:Work></rdf:RDF></metadata><defs
     id="defs838" /><sodipodi:namedview
     pagecolor="#ffffff"
     bordercolor="#666666"
     borderopacity="1"
     objecttolerance="10"
     gridtolerance="10"
     guidetolerance="10"
     inkscape:pageopacity="0"
     inkscape:pageshadow="2"
     inkscape:window-width="1920"
     inkscape:window-height="1015"
     id="namedview836"
     showgrid="false"
     inkscape:zoom="7.0709176"
     inkscape:cx="132.86356"
     inkscape:cy="19.041055"
     inkscape:window-x="0"
     inkscape:window-y="0"
     inkscape:window-maximized="1"
     inkscape:current-layer="g876" /><g
     id="g842"
     inkscape:groupmode="layer"
     inkscape:label="TikZ_Feynman__2_"
     transform="matrix(1.3333333,0,0,-1.3333333,0,211.288)"><g
       id="g844"
       transform="translate(91.189,158.068)"><g
         id="g848"><g
           id="g852"><g
             id="g854" /></g><g
           id="g856"><g
             id="g858" /></g><g
           id="g860"><g
             id="g862" /></g><g
           id="g864"><g
             id="g866" /></g><g
           id="g868"><g
             id="g870" /></g><g
           id="g872"><g
             id="g874" /></g><g
           id="g876"><g
             id="g878"><g
               id="g880"><g
                 id="g882"><path
                   d="M 0,0 V -0.51169 L 0.62267,-1.02339 1.07849,-1.5351 1.24535,-2.04678 1.07849,-2.55849 0.62267,-3.07019 0,-3.58188 -0.62267,-4.09358 -1.07849,-4.60529 -1.24535,-5.11697 -1.07849,-5.62868 -0.62267,-6.14038 0,-6.65207 0.62267,-7.16377 1.07849,-7.67548 1.24535,-8.18716 1.07849,-8.69887 0.62267,-9.21057 0,-9.72226 l -0.62267,-0.5117 -0.45582,-0.51171 -0.16686,-0.51168 0.16686,-0.51171 0.45582,-0.5117 L 0,-12.79245 l 0.62267,-0.5117 0.45582,-0.51171 0.16686,-0.5117 -0.16686,-0.51169 -0.45582,-0.5117 L 0,-15.86266 l -0.62267,-0.51168 -0.45582,-0.51171 -0.16686,-0.5117 0.16686,-0.51169 0.45582,-0.5117 L 0,-18.93285 l 0.62267,-0.51168 0.45582,-0.51171 0.16686,-0.5117 -0.16686,-0.51169 -0.45582,-0.5117 L 0,-22.00304 l -0.62267,-0.51168 -0.45582,-0.51171 -0.16686,-0.5117 0.16686,-0.51169 0.45582,-0.5117 L 0,-25.07323 l 0.62267,-0.51169 0.45582,-0.5117 0.16686,-0.5117 -0.16686,-0.51169 -0.45582,-0.5117 L 0,-28.14342 l -0.62267,-0.5117 -0.45582,-0.51169 -0.16686,-0.5117 0.16686,-0.51171 0.45582,-0.51168 L 0,-31.21361 0.62267,-31.72531 1.07849,-32.237 1.24535,-32.7487 1.07849,-33.2604 0.62267,-33.7721 0,-34.2838 l -0.62267,-0.5117 -0.45582,-0.51169 -0.16686,-0.51171 0.16686,-0.5117 0.45582,-0.51169 0.62267,-0.5117 0.62267,-0.5117 0.45582,-0.51169 0.16686,-0.5117 L 1.07849,-39.40079 0.62267,-39.91248 0,-40.42418 l -0.62267,-0.5117 -0.45582,-0.51169 -0.16686,-0.5117 0.16686,-0.51171 0.45582,-0.5117 L 0,-43.49437 l 0.62267,-0.5117 0.45582,-0.51171 0.16686,-0.51168 -0.16686,-0.51171 -0.45582,-0.5117 L 0,-46.56456 l -0.62267,-0.5117 -0.45582,-0.51171 -0.16686,-0.51169 0.16686,-0.5117 0.45582,-0.5117 L 0,-49.63475 l 0.62267,-0.5117 0.45582,-0.51171 0.16686,-0.51169 -0.16686,-0.5117 -0.45582,-0.5117 L 0,-52.70494 l -0.62267,-0.5117 -0.45582,-0.51171 -0.16686,-0.51169 0.16686,-0.5117 0.45582,-0.5117 L 0,-55.77515 l 0.62267,-0.51168 0.45582,-0.51171 0.16686,-0.5117 -0.16686,-0.51169 -0.45582,-0.5117 L 0,-58.84534 l -0.62267,-0.51169 -0.45582,-0.5117 -0.16686,-0.5117 0.16686,-0.51169 0.45582,-0.5117 L 0,-61.91553 l 0.62267,-0.51169 0.45582,-0.5117 0.16686,-0.5117 -0.16686,-0.51169 -0.45582,-0.5117 L 0,-64.98572 -0.62267,-65.4974 -1.07849,-66.00911 -1.24535,-66.52081 0,-67.58357"
                   style="fill:none;stroke:#000000;stroke-width:0.79701;stroke-linecap:butt;stroke-linejoin:miter;stroke-miterlimit:10;stroke-dasharray:none;stroke-opacity:1"
                   id="path884"
                   inkscape:connector-curvature="0" /></g><g
                 id="g886"><g
                   id="g888"
                   transform="translate(3.719,-35.77)"><g
                     id="g890"><g
                       id="g892"
                       transform="translate(-94.908,-122.298)"><text
                         transform="scale(0.96107299,-1.0405037)"
                         style="font-variant:normal;font-weight:normal;font-size:13.16439247px;font-family:CMSY10;-inkscape-font-specification:CMSY10;writing-mode:lr-tb;fill:#000000;fill-opacity:1;fill-rule:nonzero;stroke:none;stroke-width:1"
                         id="text896"
                         x="101.98904"
                         y="-119.42685"><tspan
                           x="101.98904"
                           y="-119.42685"
                           id="tspan894"
                           style="stroke-width:1">A</tspan></text>
<text
                         transform="scale(0.96107299,-1.0405037)"
                         style="font-variant:normal;font-weight:normal;font-size:9.2150774px;font-family:CMMI7;-inkscape-font-specification:CMMI7;writing-mode:lr-tb;fill:#000000;fill-opacity:1;fill-rule:nonzero;stroke:none;stroke-width:1"
                         id="text900"
                         x="112.49926"
                         y="-117.45139"><tspan
                           x="112.49926"
                           y="-117.45139"
                           id="tspan898"
                           style="stroke-width:1">µ</tspan></text>
<g
                         id="g902"
                         transform="translate(94.908,122.298)" /></g></g><g
                     id="g904"
                     transform="translate(-3.719,35.77)" /></g></g></g></g><g
             id="g906"><g
               id="g908"><g
                 id="g910"><path
                   d="M 0,-67.58357 -32.29506,-123.4139"
                   style="fill:none;stroke:#000000;stroke-width:0.79701;stroke-linecap:butt;stroke-linejoin:miter;stroke-miterlimit:10;stroke-dasharray:none;stroke-opacity:1"
                   id="path912"
                   inkscape:connector-curvature="0" /><g
                   id="g914"><g
                     id="g916"><g
                       id="g918"><path
                         d="m -18.1505,-98.96117 6.04598,4.63149 -5.0455,2.91859 z"
                         style="fill:#000000;fill-opacity:1;fill-rule:nonzero;stroke:none"
                         id="path920"
                         inkscape:connector-curvature="0" /><g
                         id="g922"
                         transform="matrix(-0.5007,-0.86559,0.86559,-0.5007,-15.426,-94.249)"><g
                           id="g924" /><g
                           id="g926"
                           transform="translate(15.426,94.249)" /></g></g></g></g></g><g
                 id="g928"
                 transform="translate(2.1213656,38.184578)"><g
                   id="g930"
                   transform="translate(-5.6406305,-109.74132)"><g
                     id="g932"><g
                       id="g934"
                       transform="translate(-78.76,-51.933)"><text
                         transform="scale(0.961073,-1.0405037)"
                         style="font-variant:normal;font-weight:normal;font-size:13.16439247px;font-family:CMMI10;-inkscape-font-specification:CMMI10;writing-mode:lr-tb;fill:#000000;fill-opacity:1;fill-rule:nonzero;stroke:none;stroke-width:1"
                         id="text938"
                         x="50.794838"
                         y="-27.46612"><tspan
                           x="50.794838"
                           y="-27.46612"
                           id="tspan936"
                           style="stroke-width:1">f</tspan></text>
<g
                         id="g940"
                         transform="translate(78.76,51.933)" /></g></g><g
                     id="g942"
                     transform="translate(12.429,106.135)" /></g></g></g></g><g
             id="g944"><g
               id="g946"><g
                 id="g948"><path
                   d="m -32.29506,-123.4139 -0.44282,-0.25361 -0.13337,-0.79392 -0.21629,-0.64915 -0.35991,-0.39841 -0.52574,-0.10884 -0.66936,0.14191 -0.75227,0.28667 -0.75229,0.28668 -0.66936,0.1419 -0.52574,-0.10883 -0.35991,-0.39841 -0.21628,-0.64916 -0.13337,-0.79391 -0.13338,-0.79393 -0.21629,-0.64916 -0.3599,-0.39839 -0.52576,-0.10886 -0.66935,0.14191 -0.75226,0.28668 -0.75229,0.28667 -0.66936,0.14191 -0.52575,-0.10885 -0.35989,-0.3984 -0.21628,-0.64916 -0.1334,-0.79391 -0.13336,-0.79393 -0.21629,-0.64916 -0.35991,-0.39839 -0.52573,-0.10884 -0.66937,0.14191 -0.75227,0.28668 -0.75229,0.28665 -0.66936,0.14192 -0.52574,-0.10885 -0.35991,-0.39839 -0.21628,-0.64916 -0.13338,-0.79393 -0.13337,-0.7939 -0.2163,-0.64917 -0.3599,-0.3984 -0.52573,-0.10885 -0.66937,0.14191 -0.75228,0.28668 -0.75227,0.28667 -0.66936,0.14192 -0.52574,-0.10885 -0.35991,-0.39841 -0.21629,-0.64916 -0.13338,-0.79391 -0.13336,-0.79392 -0.21629,-0.64917 -0.35991,-0.39838 -0.52573,-0.10886 -0.66937,0.14192 -0.75227,0.28667 -0.7523,0.28667 -0.66935,0.14191 -0.52573,-0.10885 -0.35992,-0.39839 -0.21628,-0.64916 -0.13338,-0.79393 -0.13337,-0.7939 -0.21628,-0.64918 -0.35993,-0.39838 -0.52572,-0.10886 -0.66938,0.14191 -0.75227,0.28668 -0.75227,0.28667 -0.66938,0.14192 -0.52572,-0.10887 -0.35992,-0.39837 -0.21628,-0.64918 -0.13338,-0.79392 -0.13336,-0.7939 -0.21628,-0.64918 -0.35993,-0.39839 -0.52572,-0.10885 -0.66939,0.1419 -0.75226,0.28669 -0.75229,0.28666 -0.66935,0.14192 -0.52573,-0.10885 -0.35993,-0.3984 -0.21627,-0.64916 -0.1334,-0.79392 -0.13336,-0.79392 -0.21627,-0.64916 -0.35993,-0.39838 -0.52573,-0.10887 -0.66937,0.14194 -0.75227,0.28667 -0.75228,0.28665 -0.66937,0.14193 -0.52572,-0.10887 -0.35993,-0.39838 -0.21628,-0.64917 -0.13337,-0.79391 -0.13337,-0.79392 -0.21628,-0.64917 -0.35992,-0.39839 -0.52574,-0.10885 -0.66937,0.14192 -0.75226,0.28666 -0.75227,0.28667 -0.66938,0.14193 -0.52572,-0.10886 -0.35993,-0.39839 -0.21628,-0.64917 -0.13337,-0.7939 -0.13338,-0.79393 -0.21628,-0.64917 -0.35992,-0.39838 -0.52573,-0.10887 -0.66937,0.14192 -0.75228,0.28667 -0.75227,0.28668 -0.66937,0.1419 -0.52573,-0.10885 -0.35992,-0.39838 -0.21628,-0.64917 -0.13336,-0.79391 -0.13339,-0.79393 -0.21628,-0.64916 -0.35991,-0.39839 -0.52574,-0.10885 -0.66936,0.14192 -0.75229,0.28667 -0.75226,0.28666 -0.66937,0.14192 -0.52574,-0.10887 -0.31,-1.61325"
                   style="fill:none;stroke:#000000;stroke-width:0.79701;stroke-linecap:butt;stroke-linejoin:miter;stroke-miterlimit:10;stroke-dasharray:none;stroke-opacity:1"
                   id="path950"
                   inkscape:connector-curvature="0" /></g><g
                 id="g952"
                 transform="translate(-15.485968,19.304426)"><g
                   id="g954"
                   transform="translate(-57.824,-150.691)"><g
                     id="g956"><g
                       id="g958"
                       transform="translate(-33.365,-7.377)"><text
                         transform="scale(0.96107299,-1.0405037)"
                         style="font-variant:normal;font-weight:normal;font-size:13.16439247px;font-family:CMSY10;-inkscape-font-specification:CMSY10;writing-mode:lr-tb;fill:#000000;fill-opacity:1;fill-rule:nonzero;stroke:none;stroke-width:1"
                         id="text962"
                         x="31.989779"
                         y="-6.2315989"><tspan
                           x="31.989779"
                           y="-6.2315989"
                           id="tspan960"
                           style="stroke-width:1">A</tspan></text>
<text
                         transform="scale(0.96107299,-1.0405037)"
                         style="font-variant:normal;font-weight:normal;font-size:9.2150774px;font-family:CMMI7;-inkscape-font-specification:CMMI7;writing-mode:lr-tb;fill:#000000;fill-opacity:1;fill-rule:nonzero;stroke:none;stroke-width:1"
                         id="text966"
                         x="42.501324"
                         y="-4.2561426"><tspan
                           x="42.501324"
                           y="-4.2561426"
                           id="tspan964"
                           style="stroke-width:1">ν</tspan></text>
<g
                         id="g968"
                         transform="translate(33.365,7.377)" /></g></g><g
                     id="g970"
                     transform="translate(57.824,150.691)" /></g></g></g></g><g
             id="g972"><g
               id="g974"><g
                 id="g976"><path
                   d="m 0,-67.58357 32.18692,-55.80422"
                   style="fill:none;stroke:#000000;stroke-width:0.79701;stroke-linecap:butt;stroke-linejoin:miter;stroke-miterlimit:10;stroke-dasharray:none;stroke-opacity:1"
                   id="path978"
                   inkscape:connector-curvature="0" /><g
                   id="g980"><g
                     id="g982"><g
                       id="g984"><path
                         d="m 18.0903,-98.94812 -0.99097,7.55142 -5.04925,-2.91228 z"
                         style="fill:#000000;fill-opacity:1;fill-rule:nonzero;stroke:none"
                         id="path986"
                         inkscape:connector-curvature="0" /><g
                         id="g988"
                         transform="matrix(0.49962,-0.86623,0.86623,0.49962,15.37,-94.233)"><g
                           id="g990" /><g
                           id="g992"
                           transform="translate(-15.37,94.233)" /></g></g></g></g></g><g
                 id="g994"
                 transform="translate(19.092289,16.864855)"><g
                   id="g996"
                   transform="translate(19.812,-89.829)"><g
                     id="g998"><g
                       id="g1000"
                       transform="translate(-111.001,-68.239)"><text
                         transform="scale(0.961073,-1.0405037)"
                         style="font-variant:normal;font-weight:normal;font-size:13.16439247px;font-family:CMMI10;-inkscape-font-specification:CMMI10;writing-mode:lr-tb;fill:#000000;fill-opacity:1;fill-rule:nonzero;stroke:none;stroke-width:1"
                         id="text1004"
                         x="99.41523"
                         y="-43.50927"><tspan
                           x="99.41523"
                           y="-43.50927"
                           id="tspan1002"
                           style="stroke-width:1">f</tspan></text>
<g
                         id="g1006"
                         transform="translate(111.001,68.239)" /></g></g><g
                     id="g1008"
                     transform="translate(-19.812,89.829)" /></g></g></g></g><g
             id="g1010"><g
               id="g1012"><g
                 id="g1014"><path
                   d="m 32.18692,-123.38779 -64.48198,-0.0261"
                   style="fill:none;stroke:#000000;stroke-width:0.79701;stroke-linecap:butt;stroke-linejoin:miter;stroke-miterlimit:10;stroke-dasharray:none;stroke-opacity:1"
                   id="path1016"
                   inkscape:connector-curvature="0" /><g
                   id="g1018"><g
                     id="g1020"><g
                       id="g1022"><path
                         d="m -4.07921,-123.40219 7.03763,-2.91168 -0.0023,5.82893 z"
                         style="fill:#000000;fill-opacity:1;fill-rule:nonzero;stroke:none"
                         id="path1024"
                         inkscape:connector-curvature="0" /><g
                         id="g1026"
                         transform="matrix(-0.99998,-4e-4,4e-4,-0.99998,1.363,-123.399)"><g
                           id="g1028" /><g
                           id="g1030"
                           transform="translate(-1.363,123.399)" /></g></g></g></g></g><g
                 id="g1032"
                 transform="translate(21.319723,34.578257)"><g
                   id="g1034"
                   transform="translate(-3.03,-134.037)"><g
                     id="g1036"><g
                       id="g1038"
                       transform="translate(-88.159,-24.031)"><text
                         transform="scale(0.961073,-1.0405037)"
                         style="font-variant:normal;font-weight:normal;font-size:13.16439247px;font-family:CMMI10;-inkscape-font-specification:CMMI10;writing-mode:lr-tb;fill:#000000;fill-opacity:1;fill-rule:nonzero;stroke:none;stroke-width:1"
                         id="text1042"
                         x="69.232361"
                         y="14.906116"><tspan
                           x="69.232361"
                           y="14.906116"
                           id="tspan1040"
                           style="stroke-width:1">f</tspan></text>
<g
                         id="g1044"
                         transform="translate(88.159,24.031)" /></g></g><g
                     id="g1046"
                     transform="translate(3.03,134.037)" /></g></g></g></g><g
             id="g1048"><g
               id="g1050"><g
                 id="g1052"><path
                   d="m 32.18692,-123.38779 0.44124,-0.25543 0.7532,0.28346 0.6696,0.13907 0.52484,-0.11104 0.3577,-0.39982 0.21291,-0.64992 0.12933,-0.7943 0.12932,-0.79431 0.21292,-0.64993 0.3577,-0.39981 0.52482,-0.11104 0.66962,0.13907 0.75319,0.28345 0.75319,0.28344 0.66962,0.13907 0.52484,-0.11102 0.35768,-0.39983 0.21292,-0.64992 0.12932,-0.7943 0.12935,-0.7943 0.21289,-0.64993 0.35769,-0.39982 0.52484,-0.11103 0.66961,0.13906 0.7532,0.28345 0.75317,0.28345 0.66962,0.13907 0.52485,-0.11104 0.35767,-0.39983 0.21293,-0.64991 0.12933,-0.7943 0.12933,-0.79431 0.21292,-0.6499 0.35767,-0.39983 0.52484,-0.11104 0.66961,0.13907 0.7532,0.28344 0.75318,0.28345 0.66961,0.13907 0.52485,-0.11103 0.35768,-0.39982 0.21291,-0.64993 0.12935,-0.79429 0.12933,-0.79432 0.21291,-0.64991 0.35768,-0.39983 0.52484,-0.11104 0.66962,0.13907 0.75319,0.28346 0.75319,0.28345 0.66961,0.13905 0.52483,-0.11102 0.35768,-0.39981 0.21292,-0.64993 0.12933,-0.79432 0.12934,-0.79429 0.21292,-0.64992 0.35766,-0.39982 0.52486,-0.11104 0.66961,0.13907 0.75318,0.28346 0.75321,0.28343 0.6696,0.13907 0.52484,-0.11104 0.35768,-0.39981 0.21292,-0.64991 0.12933,-0.79432 0.12932,-0.79431 0.21292,-0.6499 0.35767,-0.39981 0.52486,-0.11106 0.66961,0.13907 0.75318,0.28345 0.7532,0.28346 0.66962,0.13905 0.52482,-0.11103 0.3577,-0.39981 0.21291,-0.64992 0.12933,-0.79431 0.12933,-0.79432 0.21291,-0.64991 0.3577,-0.39981 0.52482,-0.11106 0.66962,0.13907 0.7532,0.28347 0.75318,0.28346 0.66961,0.13905 0.52486,-0.11104 0.35767,-0.39981 0.21292,-0.64992 0.12932,-0.79432 0.12933,-0.7943 0.21292,-0.64992 0.35768,-0.39981 0.52484,-0.11105 0.6696,0.13906 0.75321,0.28347 0.75319,0.28345 0.6696,0.13907 0.52486,-0.11106 0.35768,-0.39981 0.2129,-0.64992 0.12934,-0.7943 0.12933,-0.7943 0.21291,-0.64992 0.35769,-0.39981 0.52483,-0.11104 0.66962,0.13905 0.75318,0.28345 0.75319,0.28347 0.66962,0.13906 0.52484,-0.11106 0.35768,-0.3998 0.21292,-0.64992 0.12932,-0.7943 0.12935,-0.79432 0.21291,-0.64992 0.35768,-0.39981 0.52484,-0.11103 0.66962,0.13904 0.75318,0.28346 0.7532,0.28347 0.66961,0.13907 0.52484,-0.11106 0.35767,-0.39981 0.21292,-0.64992 0.12933,-0.79431 0.12933,-0.79429 0.21293,-0.64994 0.35767,-0.39981 1.58624,0.5194"
                   style="fill:none;stroke:#000000;stroke-width:0.79701;stroke-linecap:butt;stroke-linejoin:miter;stroke-miterlimit:10;stroke-dasharray:none;stroke-opacity:1"
                   id="path1054"
                   inkscape:connector-curvature="0" /></g><g
                 id="g1056"
                 transform="translate(-4.1366626,39.563466)"><g
                   id="g1058"
                   transform="translate(65.068,-133.699)"><g
                     id="g1060"><g
                       id="g1062"
                       transform="translate(-156.257,-24.369)"><text
                         transform="scale(0.961073,-1.0405037)"
                         style="font-variant:normal;font-weight:normal;font-size:13.16439247px;font-family:CMSY10;-inkscape-font-specification:CMSY10;writing-mode:lr-tb;fill:#000000;fill-opacity:1;fill-rule:nonzero;stroke:none;stroke-width:1"
                         id="text1066"
                         x="159.21541"
                         y="14.459492"><tspan
                           x="159.21541"
                           y="14.459492"
                           id="tspan1064"
                           style="stroke-width:1">A</tspan></text>
<text
                         transform="scale(0.961073,-1.0405037)"
                         style="font-variant:normal;font-weight:normal;font-size:9.2150774px;font-family:CMMI7;-inkscape-font-specification:CMMI7;writing-mode:lr-tb;fill:#000000;fill-opacity:1;fill-rule:nonzero;stroke:none;stroke-width:1"
                         id="text1070"
                         x="169.72696"
                         y="16.433628"><tspan
                           x="169.72696"
                           y="16.433628"
                           id="tspan1068"
                           style="stroke-width:1">ρ</tspan></text>
<g
                         id="g1072"
                         transform="translate(156.257,24.369)" /></g></g><g
                     id="g1074"
                     transform="translate(-65.068,133.699)" /></g></g></g></g><g
             id="g1076"><g
               id="g1078"><g
                 id="g1080" /></g></g><g
             id="g1082"
             transform="translate(0,-67.583)"><g
               id="g1084"><g
                 id="g1086" /></g><g
               id="g1088"
               transform="translate(0,67.583)" /></g><g
             id="g1090"
             transform="translate(-32.295,-123.413)"><g
               id="g1092"><g
                 id="g1094" /></g><g
               id="g1096"
               transform="translate(32.295,123.413)" /></g><g
             id="g1098"
             transform="translate(-90.791,-156.916)"><g
               id="g1100"><g
                 id="g1102" /></g><g
               id="g1104"
               transform="translate(90.791,156.916)" /></g><g
             id="g1106"
             transform="translate(32.186,-123.387)"><g
               id="g1108"><g
                 id="g1110" /></g><g
               id="g1112"
               transform="translate(-32.186,123.387)" /></g><g
             id="g1114"
             transform="translate(90.512,-157.15)"><g
               id="g1116"><g
                 id="g1118" /></g><g
               id="g1120"
               transform="translate(-90.512,157.15)" /></g></g></g></g></g></svg>