<?xml version="1.0" encoding="UTF-8" standalone="no"?>
<!-- Created with Inkscape (http://www.inkscape.org/) -->

<svg
   xmlns:dc="http://purl.org/dc/elements/1.1/"
   xmlns:cc="http://creativecommons.org/ns#"
   xmlns:rdf="http://www.w3.org/1999/02/22-rdf-syntax-ns#"
   xmlns:svg="http://www.w3.org/2000/svg"
   xmlns="http://www.w3.org/2000/svg"
   xmlns:sodipodi="http://sodipodi.sourceforge.net/DTD/sodipodi-0.dtd"
   xmlns:inkscape="http://www.inkscape.org/namespaces/inkscape"
   version="1.1"
   id="svg2"
   xml:space="preserve"
   width="242.42709"
   height="210.84238"
   viewBox="0 0 242.42709 210.84238"
   sodipodi:docname="triangularanomaly.pdf"><metadata
     id="metadata8"><rdf:RDF><cc:Work
         rdf:about=""><dc:format>image/svg+xml</dc:format><dc:type
           rdf:resource="http://purl.org/dc/dcmitype/StillImage" /></cc:Work></rdf:RDF></metadata><defs
     id="defs6" /><sodipodi:namedview
     pagecolor="#ffffff"
     bordercolor="#666666"
     borderopacity="1"
     objecttolerance="10"
     gridtolerance="10"
     guidetolerance="10"
     inkscape:pageopacity="0"
     inkscape:pageshadow="2"
     inkscape:window-width="640"
     inkscape:window-height="480"
     id="namedview4"
     showgrid="false" /><g
     id="g10"
     inkscape:groupmode="layer"
     inkscape:label="triangularanomaly"
     transform="matrix(1.3333333,0,0,1.3333333,0,8.6043925e-6)"><g
       id="g12"><g
         id="g14"
         transform="scale(1,-1)"><path
           d="m 91.18,0 v -0.512 l 0.625,-0.511 0.453,-0.512 0.168,-0.512 -0.168,-0.512 -0.453,-0.511 -0.625,-0.512 -0.621,-0.512 -0.457,-0.511 -0.164,-0.512 0.164,-0.512 0.457,-0.512 0.621,-0.511 0.625,-0.512 0.453,-0.512 0.168,-0.512 -0.168,-0.511 -0.453,-0.512 -0.625,-0.512 -0.621,-0.511 -0.457,-0.512 -0.164,-0.512 0.164,-0.512 0.457,-0.511 0.621,-0.512 0.625,-0.512 0.453,-0.511 0.168,-0.512 -0.168,-0.512 -0.453,-0.512 -0.625,-0.511 -0.621,-0.512 -0.457,-0.512 -0.164,-0.511 0.164,-0.512 0.457,-0.512 0.621,-0.512 0.625,-0.511 0.453,-0.512 0.168,-0.512 -0.168,-0.511 -0.453,-0.512 -0.625,-0.512 -0.621,-0.512 -0.457,-0.511 -0.164,-0.512 0.164,-0.512 0.457,-0.511 0.621,-0.512 0.625,-0.512 0.453,-0.512 0.168,-0.511 -0.168,-0.512 -0.453,-0.512 -0.625,-0.512 -0.621,-0.511 -0.457,-0.512 -0.164,-0.512 0.164,-0.511 0.457,-0.512 0.621,-0.512 0.625,-0.512 0.453,-0.511 0.168,-0.512 -0.168,-0.512 -0.453,-0.511 -0.625,-0.512 -0.621,-0.512 -0.457,-0.512 -0.164,-0.511 0.164,-0.512 0.457,-0.512 0.621,-0.511 0.625,-0.512 0.453,-0.508 0.168,-0.512 -0.168,-0.511 -0.453,-0.512 -0.625,-0.512 -0.621,-0.512 -0.457,-0.511 -0.164,-0.512 0.164,-0.512 0.457,-0.511 0.621,-0.512 0.625,-0.512 0.453,-0.512 0.168,-0.511 -0.168,-0.512 -0.453,-0.512 -0.625,-0.511 -0.621,-0.512 -0.457,-0.512 -0.164,-0.512 0.164,-0.511 0.457,-0.512 0.621,-0.512 0.625,-0.512 0.453,-0.511 0.168,-0.512 -0.168,-0.512 -0.453,-0.511 -0.625,-0.512 -0.621,-0.512 -0.457,-0.512 -0.164,-0.511 0.164,-0.512 0.457,-0.512 0.621,-0.511 0.625,-0.512 0.453,-0.512 0.168,-0.512 -0.168,-0.511 -0.453,-0.512 -0.625,-0.512 -0.621,-0.511 -0.457,-0.512 -0.164,-0.512 0.164,-0.512 0.457,-0.511 0.621,-0.512 0.625,-0.512 0.453,-0.512 0.168,-0.511 -0.168,-0.512 -0.453,-0.512 -0.625,-0.511 -0.621,-0.512 -0.457,-0.512 -0.164,-0.512 1.242,-1.062"
           style="fill:none;stroke:#000000;stroke-width:0.79701;stroke-linecap:butt;stroke-linejoin:miter;stroke-miterlimit:10;stroke-dasharray:none;stroke-opacity:1"
           id="path16"
           inkscape:connector-curvature="0" /></g><text
         transform="matrix(0.92366129,0,0,1,98.012292,33.803923)"
         style="font-variant:normal;font-weight:normal;font-size:13.69759941px;font-family:cmsy10;-inkscape-font-specification:cmsy10;writing-mode:lr-tb;fill:#000000;fill-opacity:1;fill-rule:nonzero;stroke:none"
         id="text20"><tspan
           x="0"
           y="0"
           id="tspan18">A</tspan></text>
<text
         transform="matrix(0.9236613,0,0,1,108.11339,35.859393)"
         style="font-variant:normal;font-weight:normal;font-size:9.58832073px;font-family:'DejaVu Sans';-inkscape-font-specification:DejaVuSans;writing-mode:lr-tb;fill:#000000;fill-opacity:1;fill-rule:nonzero;stroke:none"
         id="text24"><tspan
           x="0"
           y="0"
           id="tspan22">µ</tspan></text>
<g
         id="g26"
         transform="scale(1,-1)"><path
           d="M 91.18,-67.582 58.887,-123.414"
           style="fill:none;stroke:#000000;stroke-width:0.79701;stroke-linecap:butt;stroke-linejoin:miter;stroke-miterlimit:10;stroke-dasharray:none;stroke-opacity:1"
           id="path28"
           inkscape:connector-curvature="0" /></g><path
         d="M 73.031,98.961 79.078,94.328 74.031,91.41 Z"
         style="fill:#000000;fill-opacity:1;fill-rule:nonzero;stroke:none"
         id="path30"
         inkscape:connector-curvature="0" /><text
         transform="matrix(0.92366129,0,0,1,57.720668,94.911142)"
         style="font-variant:normal;font-weight:normal;font-size:13.69759941px;font-family:cmmi10;-inkscape-font-specification:cmmi10;writing-mode:lr-tb;fill:#000000;fill-opacity:1;fill-rule:nonzero;stroke:none"
         id="text34"><tspan
           x="0"
           y="0"
           id="tspan32">f</tspan></text>
<g
         id="g36"
         transform="scale(1,-1)"><path
           d="m 58.887,-123.414 -0.446,-0.254 -0.132,-0.793 -0.215,-0.648 -0.36,-0.399 -0.527,-0.109 -0.668,0.14 -0.754,0.289 -0.75,0.286 -0.672,0.14 -0.523,-0.105 -0.36,-0.399 -0.218,-0.652 -0.266,-1.586 -0.215,-0.648 -0.363,-0.399 -0.523,-0.109 -0.668,0.14 -0.754,0.29 -0.754,0.285 -0.668,0.14 -0.528,-0.109 -0.359,-0.398 -0.215,-0.649 -0.265,-1.586 -0.219,-0.648 -0.36,-0.399 -0.523,-0.109 -0.672,0.141 -0.75,0.285 -0.754,0.289 -0.668,0.14 -0.527,-0.109 -0.359,-0.398 -0.215,-0.649 -0.137,-0.793 -0.133,-0.793 -0.215,-0.652 -0.359,-0.399 -0.527,-0.105 -0.668,0.141 -0.754,0.285 -0.75,0.289 -0.672,0.14 -0.524,-0.109 -0.359,-0.398 -0.219,-0.649 -0.132,-0.793 -0.133,-0.797 -0.215,-0.648 -0.363,-0.399 -0.524,-0.109 -0.672,0.145 -0.75,0.285 -0.754,0.289 -0.668,0.14 -0.527,-0.109 -0.359,-0.398 -0.215,-0.649 -0.133,-0.793 -0.133,-0.797 -0.219,-0.648 -0.359,-0.399 -0.527,-0.109 -0.668,0.145 -0.75,0.285 -0.754,0.285 -0.668,0.144 -0.527,-0.109 -0.36,-0.398 -0.219,-0.649 -0.132,-0.797 -0.133,-0.793 -0.215,-0.648 -0.359,-0.399 -0.528,-0.109 -0.668,0.141 -0.754,0.289 -0.75,0.285 -0.672,0.144 -0.523,-0.109 -0.363,-0.398 -0.215,-0.649 -0.133,-0.797 -0.133,-0.793 -0.218,-0.648 -0.36,-0.398 -0.523,-0.11 -0.672,0.141 -0.75,0.289 -0.754,0.285 -0.668,0.141 -0.527,-0.106 -0.36,-0.398 -0.215,-0.653 -0.132,-0.793 -0.137,-0.793 -0.215,-0.648 -0.359,-0.398 -0.528,-0.11 -0.668,0.141 -0.754,0.289 -0.75,0.285 -0.668,0.141 -0.527,-0.11 -0.359,-0.398 -0.219,-0.649 -0.266,-1.586 -0.214,-0.648 -0.36,-0.398 -0.527,-0.11 -0.668,0.141 -0.754,0.285 -0.75,0.289 -0.672,0.141 -0.523,-0.11 -0.364,-0.398 -0.214,-0.649 -0.266,-1.586 -0.219,-0.652 -0.359,-0.394 -0.524,-0.11 -0.672,0.141 -0.75,0.285 -0.753,0.289 -0.668,0.141 -0.528,-0.11 -0.308,-1.613"
           style="fill:none;stroke:#000000;stroke-width:0.79701;stroke-linecap:butt;stroke-linejoin:miter;stroke-miterlimit:10;stroke-dasharray:none;stroke-opacity:1"
           id="path38"
           inkscape:connector-curvature="0" /></g><text
         transform="matrix(0.92366129,0,0,1,15.251932,132.27957)"
         style="font-variant:normal;font-weight:normal;font-size:13.69759941px;font-family:cmsy10;-inkscape-font-specification:cmsy10;writing-mode:lr-tb;fill:#000000;fill-opacity:1;fill-rule:nonzero;stroke:none"
         id="text42"><tspan
           x="0"
           y="0"
           id="tspan40">A</tspan></text>
<text
         transform="matrix(0.9236613,0,0,1,25.354293,134.33504)"
         style="font-variant:normal;font-weight:normal;font-size:9.58832073px;font-family:'DejaVu Sans';-inkscape-font-specification:DejaVuSans;writing-mode:lr-tb;fill:#000000;fill-opacity:1;fill-rule:nonzero;stroke:none"
         id="text46"><tspan
           x="0"
           y="0"
           id="tspan44">ν</tspan></text>
<g
         id="g48"
         transform="scale(1,-1)"><path
           d="m 91.18,-67.582 32.187,-55.805"
           style="fill:none;stroke:#000000;stroke-width:0.79701;stroke-linecap:butt;stroke-linejoin:miter;stroke-miterlimit:10;stroke-dasharray:none;stroke-opacity:1"
           id="path50"
           inkscape:connector-curvature="0" /></g><path
         d="m 104.508,90.621 0.992,7.555 5.051,-2.914 z"
         style="fill:#000000;fill-opacity:1;fill-rule:nonzero;stroke:none"
         id="path52"
         inkscape:connector-curvature="0" /><text
         transform="matrix(0.92366129,0,0,1,114.63097,95.931588)"
         style="font-variant:normal;font-weight:normal;font-size:13.69759941px;font-family:cmmi10;-inkscape-font-specification:cmmi10;writing-mode:lr-tb;fill:#000000;fill-opacity:1;fill-rule:nonzero;stroke:none"
         id="text56"><tspan
           x="0"
           y="0"
           id="tspan54">f</tspan></text>
<g
         id="g58"
         transform="scale(1,-1)"><path
           d="m 123.367,-123.387 -64.48,-0.027"
           style="fill:none;stroke:#000000;stroke-width:0.79701;stroke-linecap:butt;stroke-linejoin:miter;stroke-miterlimit:10;stroke-dasharray:none;stroke-opacity:1"
           id="path60"
           inkscape:connector-curvature="0" /></g><path
         d="m 94.141,123.402 -7.039,2.91 0.003,-5.828 z"
         style="fill:#000000;fill-opacity:1;fill-rule:nonzero;stroke:none"
         id="path62"
         inkscape:connector-curvature="0" /><text
         transform="matrix(0.92366129,0,0,1,87.85046,138.99961)"
         style="font-variant:normal;font-weight:normal;font-size:13.69759941px;font-family:cmmi10;-inkscape-font-specification:cmmi10;writing-mode:lr-tb;fill:#000000;fill-opacity:1;fill-rule:nonzero;stroke:none"
         id="text66"><tspan
           x="0"
           y="0"
           id="tspan64">f</tspan></text>
<g
         id="g68"
         transform="scale(1,-1)"><path
           d="m 123.367,-123.387 0.442,-0.258 0.753,0.286 0.668,0.14 0.528,-0.113 0.355,-0.398 0.215,-0.653 0.258,-1.586 0.215,-0.652 0.355,-0.399 0.528,-0.109 0.668,0.137 0.753,0.285 0.754,0.281 0.668,0.141 0.524,-0.11 0.359,-0.402 0.211,-0.648 0.133,-0.797 0.129,-0.793 0.211,-0.649 0.359,-0.402 0.524,-0.109 0.668,0.14 0.753,0.282 0.754,0.285 0.672,0.136 0.524,-0.109 0.355,-0.402 0.215,-0.649 0.129,-0.793 0.129,-0.797 0.215,-0.648 0.355,-0.398 0.527,-0.114 0.668,0.141 0.754,0.281 0.754,0.285 0.668,0.141 0.524,-0.113 0.359,-0.399 0.215,-0.652 0.258,-1.586 0.211,-0.652 0.359,-0.399 0.523,-0.109 0.672,0.136 0.75,0.286 0.754,0.281 0.672,0.141 0.524,-0.114 0.359,-0.398 0.211,-0.649 0.129,-0.797 0.129,-0.792 0.214,-0.649 0.356,-0.402 0.527,-0.11 0.668,0.141 0.754,0.281 0.754,0.285 0.668,0.137 0.527,-0.109 0.356,-0.403 0.215,-0.648 0.129,-0.793 0.128,-0.797 0.211,-0.648 0.36,-0.399 0.523,-0.113 0.672,0.141 0.754,0.281 0.75,0.285 0.672,0.141 0.523,-0.114 0.36,-0.398 0.211,-0.652 0.257,-1.586 0.215,-0.653 0.356,-0.398 0.527,-0.11 0.668,0.137 0.754,0.285 0.754,0.282 0.668,0.14 0.527,-0.113 0.356,-0.399 0.215,-0.648 0.128,-0.797 0.129,-0.793 0.211,-0.648 0.36,-0.403 0.523,-0.109 0.672,0.141 0.754,0.281 0.75,0.285 0.672,0.137 0.523,-0.11 0.36,-0.402 0.211,-0.648 0.128,-0.793 0.133,-0.797 0.211,-0.649 0.36,-0.398 0.523,-0.113 0.668,0.14 0.754,0.282 0.754,0.285 0.668,0.14 0.527,-0.113 0.356,-0.398 0.214,-0.653 0.258,-1.586 0.215,-0.652 0.355,-0.398 0.528,-0.11 0.668,0.137 0.754,0.285 0.754,0.281 0.668,0.141 0.523,-0.113 0.359,-0.399 0.211,-0.648 0.133,-0.797 0.129,-0.793 0.211,-0.649 0.359,-0.402 1.586,0.52"
           style="fill:none;stroke:#000000;stroke-width:0.79701;stroke-linecap:butt;stroke-linejoin:miter;stroke-miterlimit:10;stroke-dasharray:none;stroke-opacity:1"
           id="path70"
           inkscape:connector-curvature="0" /></g><text
         transform="matrix(0.92366129,0,0,1,148.87434,133.54969)"
         style="font-variant:normal;font-weight:normal;font-size:13.69759941px;font-family:cmsy10;-inkscape-font-specification:cmsy10;writing-mode:lr-tb;fill:#000000;fill-opacity:1;fill-rule:nonzero;stroke:none"
         id="text74"><tspan
           x="0"
           y="0"
           id="tspan72">A</tspan></text>
<text
         transform="matrix(0.9236613,0,0,1,158.97671,135.60378)"
         style="font-variant:normal;font-weight:normal;font-size:9.58832073px;font-family:'DejaVu Sans';-inkscape-font-specification:DejaVuSans;writing-mode:lr-tb;fill:#000000;fill-opacity:1;fill-rule:nonzero;stroke:none"
         id="text78"><tspan
           x="0"
           y="0"
           id="tspan76">ρ</tspan></text>
</g><ellipse
       style="opacity:1;fill:none;fill-opacity:1;stroke:#000000;stroke-width:0.75;stroke-miterlimit:4;stroke-dasharray:none;stroke-dashoffset:0;stroke-opacity:0.99476438"
       id="path885"
       cx="91.084923"
       cy="92.969429"
       rx="9.0037966"
       ry="16.667492" /><path
       style="fill:#ff0000;fill-opacity:1;fill-rule:nonzero;stroke:none"
       id="path952"
       d="m 82.667412,94.351401 c 0.01736,0.481867 -0.03983,0.966324 0.0398,1.445003 0.04015,0.241329 0.115274,0.421348 0.174416,0.659489 0.04127,0.166174 0.07403,0.334345 0.111047,0.501518 0.09654,0.355096 0.180584,0.647556 0.259596,1.008918 0.03883,0.177607 0.0625,0.358391 0.103784,0.535444 0.07915,0.339427 0.206614,0.669055 0.314241,1.000083 0.11132,0.311751 0.190937,0.636034 0.310848,0.944784 0.03445,0.0887 0.07616,0.17441 0.114243,0.26162 0.04512,0.1197 0.09024,0.2394 0.135355,0.35911 0.206455,0.56816 0.34108,1.173 0.625727,1.70912 0.121422,0.229 0.184576,0.48626 0.305396,0.71542 0.02527,0.0479 0.08622,0.10561 0.123708,0.14885 0.03317,0.0993 0.06635,0.19853 0.09952,0.2978 -0.0026,-0.0306 -0.03798,-0.086 -0.0078,-0.0917 0.03166,-0.006 0.03138,0.0563 0.04726,0.0843 0.01568,0.0277 0.03126,0.0554 0.0474,0.0828 0.0029,0.005 0.01488,0.0158 0.0096,0.0139 -0.158255,-0.0561 -0.314237,-0.11843 -0.471356,-0.17765 -0.0467,0.0297 -0.0934,0.0594 -0.140104,0.0891 -0.699752,0.44478 1.293441,0.0279 0.640833,0.5393 v 0 c -0.06379,0.05 -0.127591,0.1 -0.191387,0.14999 -0.519492,-0.1425 -0.476995,-0.0114 -0.634116,-0.30351 -0.02836,-0.0527 -0.06156,-0.10342 -0.08264,-0.15945 -0.02504,-0.0666 -0.121885,-0.23008 -0.05493,-0.20614 0.07595,0.0271 0.06508,0.1476 0.09762,0.2214 -0.09198,-0.11046 -0.182576,-0.22515 -0.250557,-0.35248 -0.11421,-0.21392 -0.174311,-0.45463 -0.284149,-0.67063 -0.04893,-0.0982 -0.103364,-0.19393 -0.146797,-0.29471 -0.03831,-0.0889 -0.065,-0.18238 -0.09801,-0.27338 -0.147594,-0.40687 -0.291485,-0.81426 -0.419262,-1.22785 -0.161904,-0.43297 -0.07556,-0.21673 -0.259483,-0.64854 -0.120651,-0.31137 -0.201413,-0.63809 -0.313397,-0.952494 -0.118568,-0.364844 -0.252508,-0.726211 -0.340106,-1.100367 -0.03836,-0.163852 -0.05931,-0.331378 -0.09514,-0.495804 -0.07554,-0.346696 -0.171474,-0.684997 -0.26388,-1.027406 -0.03278,-0.150403 -0.06121,-0.30182 -0.09834,-0.45121 -0.09004,-0.362253 -0.144164,-0.42995 -0.202486,-0.806244 -0.07859,-0.50708 -0.0317,-1.01823 -0.04396,-1.528344 -0.01991,-0.828905 0.807717,-0.828607 0.837563,0 z"
       inkscape:connector-curvature="0" /><path
       style="fill:#ff0000;fill-opacity:1;fill-rule:nonzero;stroke:none;stroke-width:1.33333325"
       d="M 109.64062 124.97266 C 109.36309 124.97261 109.09415 125.25013 109.10742 125.80273 C 109.12377 126.48289 109.06123 127.16374 109.16602 127.83984 C 109.24378 128.34157 109.31549 128.43106 109.43555 128.91406 C 109.48505 129.11325 109.5227 129.31509 109.56641 129.51562 C 109.68961 129.97217 109.81725 130.42446 109.91797 130.88672 C 109.96574 131.10595 109.99378 131.32841 110.04492 131.54688 C 110.16172 132.04575 110.33996 132.52721 110.49805 133.01367 C 110.64736 133.43288 110.75515 133.87 110.91602 134.28516 C 111.16125 134.8609 111.04585 134.57114 111.26172 135.14844 C 111.43209 135.69989 111.62352 136.24462 111.82031 136.78711 C 111.86433 136.90844 111.90009 137.03186 111.95117 137.15039 C 112.00908 137.28476 112.0832 137.41204 112.14844 137.54297 C 112.29489 137.83097 112.37506 138.15227 112.52734 138.4375 C 112.58147 138.53888 112.65696 138.627 112.72656 138.71875 C 112.75189 138.7776 112.78729 138.84563 112.80273 138.88672 C 112.83084 138.96143 112.87625 139.02934 112.91406 139.09961 C 113.12356 139.48909 113.06711 139.31391 113.75977 139.50391 C 113.84483 139.43725 113.92862 139.37135 114.01367 139.30469 C 114.88382 138.62282 112.22715 139.17898 113.16016 138.58594 C 113.22243 138.54634 113.28539 138.5064 113.34766 138.4668 C 113.55715 138.54576 113.7636 138.62833 113.97461 138.70312 C 113.98165 138.70566 113.96676 138.69221 113.96289 138.68555 C 113.94137 138.64901 113.91934 138.61115 113.89844 138.57422 C 113.87726 138.53689 113.87815 138.45489 113.83594 138.46289 C 113.7957 138.47049 113.84419 138.54318 113.84766 138.58398 C 113.80343 138.45162 113.75907 138.3199 113.71484 138.1875 C 113.66486 138.12985 113.58252 138.05215 113.54883 137.98828 C 113.38773 137.68273 113.30447 137.34049 113.14258 137.03516 C 112.76305 136.32033 112.58387 135.51341 112.30859 134.75586 C 112.24844 134.59625 112.18711 134.43694 112.12695 134.27734 C 112.07618 134.16106 112.02054 134.04795 111.97461 133.92969 C 111.81473 133.51802 111.70897 133.08559 111.56055 132.66992 C 111.41704 132.22855 111.24616 131.78851 111.14062 131.33594 C 111.08558 131.09987 111.05568 130.8579 111.00391 130.62109 C 110.89856 130.13928 110.78497 129.75081 110.65625 129.27734 C 110.60689 129.05445 110.56479 128.82899 110.50977 128.60742 C 110.43091 128.2899 110.32892 128.05029 110.27539 127.72852 C 110.16922 127.09028 110.2458 126.44522 110.22266 125.80273 C 110.20276 125.25033 109.91816 124.97271 109.64062 124.97266 z "
       transform="matrix(0.75000002,0,0,0.75000002,0,-6.4532945e-6)"
       id="path954" /></g></svg>